<svg width="99" height="99" viewBox="0 0 99 99" fill="none" xmlns="http://www.w3.org/2000/svg">
<path d="M77.7705 43.2781C75.6931 44.4628 73.959 45.5101 72.1735 46.4544C69.1517 48.0683 66.0956 49.5276 62.576 49.768C59.0049 50.0084 56.2064 48.652 54.5238 45.5788C53.4937 43.6902 52.9786 41.5269 52.309 39.4666C52.0515 38.6597 52.0171 37.7669 51.8111 36.5136C50.781 38.0931 49.9912 39.3465 49.1499 40.5654C47.1068 43.5528 45.1839 46.6261 42.9519 49.459C39.913 53.3563 36.0844 53.6825 32.2729 50.4891C30.7792 49.2358 29.5774 47.6047 28.2553 46.1282C27.8605 45.6818 27.5343 45.1839 27.105 44.6173C26.3324 47.9653 25.6457 51.1587 24.8387 54.3006C22.9501 61.6317 17.0784 61.3742 12.9063 58.1636C11.7904 57.3051 10.8632 56.1548 9.95327 55.056C9.36953 54.3006 9.24935 53.322 10.0906 52.6867C10.8461 52.103 11.6358 52.515 12.2882 53.1331C12.9407 53.734 13.5587 54.3864 14.2627 54.9015C15.0868 55.5024 15.9281 56.1033 16.8552 56.5325C19.4649 57.7344 21.2161 57.1163 22.2806 54.4379C23.036 52.5494 23.5167 50.5406 24.0146 48.5662C24.4782 46.7291 24.8559 44.8577 25.2336 42.9863C25.4396 42.0248 25.68 41.0633 26.7273 40.7371C27.9291 40.3594 28.6502 41.2007 29.3198 41.9733C30.1783 42.9519 30.8822 44.0507 31.7921 44.9779C32.9253 46.1625 34.0928 47.33 35.3804 48.3086C37.1317 49.6306 38.4022 49.562 39.9474 47.9996C41.4239 46.5059 42.8489 44.892 44.0679 43.1751C46.6604 39.4838 49.1156 35.7238 51.5707 31.9466C52.1545 31.0539 52.7897 30.4358 53.8714 30.6418C54.9015 30.8307 55.2277 31.6719 55.3651 32.6162C55.6054 34.2988 55.7771 36.0157 56.1033 37.6811C56.3952 39.1404 56.7214 40.6341 57.2708 42.0076C58.7302 45.6818 60.9965 46.8493 64.8767 46.1797C67.7954 45.6818 70.5252 44.6345 73.1177 43.2438C74.9892 42.248 76.7919 41.132 78.6118 40.0676C79.5733 39.501 80.5691 38.9172 81.6335 39.7585C82.6293 40.5654 82.4576 41.6986 82.2344 42.7974C82.1314 43.261 81.9597 43.7074 81.8052 44.1538C81.479 45.0465 81.2043 45.9737 80.7923 46.8321C77.7705 53.2361 79.8823 58.507 84.4321 63.1769C85.2733 64.0354 86.3893 64.6363 87.4023 65.323C87.9002 65.6664 88.5183 65.8724 88.9647 66.2673C89.2909 66.542 89.6514 67.0914 89.5656 67.4176C89.4797 67.7782 88.9303 68.1216 88.5698 68.2933C87.78 68.6538 86.7155 68.5508 85.9601 68.2418C84.4664 67.6237 82.9555 66.8854 81.7194 65.8724C78.9723 63.6405 77.0666 60.7218 75.6759 57.4597C74.4913 54.6783 74.6458 51.8454 75.5557 49.0469C76.1738 47.227 76.9292 45.4758 77.7705 43.2781Z" fill="#81ADC8"/>
</svg>
