<svg width="570" height="400" viewBox="0 0 570 400" fill="none" xmlns="http://www.w3.org/2000/svg">
<g clip-path="url(#clip0_301_6757)">
<path d="M115.187 0C115.922 1.25716 116.755 2.46958 117.375 3.78042C121.242 11.9631 124.152 20.4769 125.644 29.4291C126.007 31.6034 126.065 33.8985 125.835 36.0952C125.184 42.3452 121.255 46.5327 115.076 47.262C111.874 47.6378 108.57 47.4454 105.337 47.1815C99.0298 46.6625 92.7538 46.2062 86.4468 47.3157C78.4346 48.7249 71.9504 52.6888 66.7419 58.8985C64.4653 61.6142 62.924 64.7146 62.2065 68.2087C61.7016 70.6693 61.8699 73.1031 63.0214 75.3445C65.2537 79.6797 68.4913 83.0932 72.8407 85.2586C77.4026 87.5313 83.2667 86.7215 87.2972 83.5048C87.2972 83.4243 87.3326 83.308 87.2928 83.2722C84.8568 81.0263 84.3474 78.163 84.6929 75.0268C84.7903 74.141 84.8922 73.2507 85.0339 72.3694C85.7736 67.8239 89.2416 65.4617 93.7238 66.437C99.6853 67.7389 102.719 72.9152 100.863 78.7983C98.4009 86.6008 92.8734 91.4057 85.5256 94.2421C70.3294 100.112 53.5122 89.2851 51.0629 73.9889C50.1195 68.0834 51.4793 62.5134 54.3714 57.44C60.7405 46.2733 70.2984 39.3656 82.7618 36.5829C90.4108 34.8738 98.1086 35.1467 105.828 35.9386C107.906 36.1534 110.001 36.2965 112.087 36.2965C114.611 36.2965 115.497 35.5002 115.493 32.9411C115.493 30.8473 115.236 28.7178 114.797 26.6643C112.946 18.0431 109.996 9.8112 105.89 2.00877C105.554 1.369 105.319 0.671081 105.04 0.00447387C108.428 0 111.808 0 115.187 0Z" fill="black"/>
<path d="M3.45455e-05 342.408C4.03935 340.399 8.38871 339.634 12.8001 339.115C20.0859 338.256 27.3009 338.708 34.2988 340.927C37.4169 341.916 40.3489 343.54 43.3164 344.976C44.2155 345.41 44.6274 345.316 45.088 344.435C46.151 342.408 47.5063 340.591 49.4108 339.267C50.93 338.211 52.5732 337.478 54.4511 337.442C57.64 337.384 59.5888 340.081 58.3531 343.052C57.485 345.141 56.3689 347.137 55.2572 349.11C53.5742 352.094 52.1524 355.172 51.4039 358.536C51.3242 358.894 51.2577 359.252 51.209 359.614C50.6022 363.994 51.9177 366.173 56.2449 366.947C61.5908 367.904 66.8348 367.211 71.7821 364.844C73.5891 363.981 74.568 362.563 74.5192 360.384C74.4572 357.843 75.941 355.879 78.1334 355.185C80.3258 354.492 82.8061 355.302 84.2588 357.266C85.902 359.476 86.0304 361.932 85.1313 364.446C84.1303 367.251 82.6023 369.824 80.184 371.524C72.411 376.982 63.8939 379.72 54.3271 378.105C53.6539 377.993 52.9939 377.801 52.3384 377.599C43.1614 374.794 38.7235 367.699 40.1363 358.111C40.2869 357.078 40.783 355.861 40.4154 355.06C40.0699 354.313 38.781 354.018 37.9218 353.499C30.2285 348.882 21.8487 348.452 13.2518 349.36C8.65445 349.843 4.23866 351.033 -0.00439453 352.886C3.45455e-05 349.401 3.45455e-05 345.902 3.45455e-05 342.408Z" fill="black"/>
<path d="M85.9688 0.000140376C86.3364 0.760699 86.6996 1.52573 87.0761 2.28182C88.5509 5.24352 89.7202 8.30812 89.924 11.6546C90.203 16.1821 88.0416 19.6181 83.7498 20.9871C81.5486 21.6895 79.2012 22.0563 76.8936 22.2353C71.561 22.6469 66.1974 22.6469 60.9888 24.1412C55.5898 25.6891 50.39 27.7337 45.4029 30.333C44.5835 30.7625 43.8084 31.2815 43.0023 31.7423C38.3872 34.4042 35.6988 38.3099 35.1584 43.7322C34.8883 46.4166 34.7554 46.4076 37.1692 47.3784C39.4856 48.3135 41.5319 49.6691 43.1883 51.5481C43.897 52.3534 44.5658 53.284 44.9423 54.2816C46.0274 57.1404 43.7907 59.8605 40.8099 59.3237C39.7204 59.1268 38.7061 58.5318 37.6254 58.2231C35.4685 57.6147 33.3204 56.9167 31.1191 56.5588C28.7894 56.1786 26.7343 57.0644 25.1797 58.8763C23.7048 60.5943 22.3451 62.4107 20.8835 64.1376C20.1837 64.9608 19.4573 65.8287 18.5715 66.4058C16.8309 67.5467 14.8954 66.9069 14.0893 64.9697C13.7748 64.2092 13.5401 63.292 13.6375 62.4912C14.3462 56.6438 16.5696 51.5302 21.632 48.2553C23.3239 47.1592 23.8864 46.1437 23.9927 44.1438C24.4755 35.1603 28.2314 27.9932 35.8449 22.9466C43.7641 17.6988 52.454 14.7639 61.7683 13.6768C65.6703 13.2204 69.6344 13.301 73.5674 13.122C75.6933 13.0281 77.8193 12.9117 79.9453 12.782C81.0171 12.7194 81.491 12.1467 81.1367 11.0774C80.4767 9.0821 79.87 7.05544 79.0727 5.11825C78.3508 3.36002 77.3941 1.70021 76.5437 -0.0043335C79.6884 0.000140376 82.8286 0.000140376 85.9688 0.000140376Z" fill="black"/>
<path d="M352.324 -2.44239e-05C355.951 4.41569 357.794 9.51143 357.966 15.229C358.099 19.5911 356.558 23.2954 353.351 26.1945C349.095 30.042 344.072 31.9882 338.332 31.7555C335.152 31.6302 332.384 30.3641 330.165 28.0467C329.563 27.4159 329.08 27.3756 328.283 27.6127C322.432 29.3441 316.652 29.1159 311.076 26.5524C305.818 24.1365 302.554 18.8216 302.784 13.3366C303.015 7.85609 307.816 3.4896 313.193 3.86987C318.215 4.22331 321.054 8.7464 319.066 13.2247C318.419 14.6787 317.958 14.7324 317.037 13.444C316.944 13.3142 316.86 13.1711 316.767 13.0413C315.695 11.5694 314.712 11.0236 313.857 11.4352C312.178 12.245 311.275 13.9629 311.656 15.6048C311.992 17.0633 312.83 18.1907 314.012 19.0363C317.555 21.5685 321.449 22.1233 325.625 21.0674C326.445 20.8616 326.511 20.2979 326.639 19.6358C327.078 17.4033 328.792 15.9717 330.869 16.0478C332.942 16.1238 334.55 17.6762 334.736 19.9892C334.882 21.8056 335.83 23.018 337.393 23.5639C338.687 24.0157 340.13 24.1902 341.503 24.1947C342.558 24.1947 343.643 23.8189 344.657 23.4565C349.905 21.5954 352.076 17.8418 351.03 12.3344C350.193 7.91426 348.373 4.00409 344.865 1.04686C344.497 0.738164 344.205 0.344464 343.877 -0.00897217C346.69 -2.44239e-05 349.507 -2.44239e-05 352.324 -2.44239e-05Z" fill="black"/>
<path d="M0 129.988C2.26326 130.928 4.66382 131.621 6.7632 132.847C14.3546 137.276 18.1061 145.781 16.8128 155.069C15.6524 163.395 11.4093 170.012 5.50977 175.658C3.82672 177.264 1.84692 178.552 0.00442908 179.984C0.00442908 176.57 0.00442908 173.157 0.00442908 169.739C0.14173 169.667 0.305606 169.618 0.416333 169.515C4.74354 165.538 7.82618 160.764 9.32321 155.02C10.3862 150.935 10.1736 146.935 8.00777 143.235C6.18742 140.14 3.53883 138.082 0 137.303C0 134.865 0 132.427 0 129.988Z" fill="black"/>
<path d="M3.4546e-05 202.667C0.314499 202.304 0.64668 201.955 0.938999 201.575C3.67617 198.032 6.64365 194.69 10.5058 192.386C12.3129 191.307 14.3414 190.529 16.3566 189.921C17.9954 189.428 19.5721 190.014 20.6351 191.473C21.7291 192.981 21.7114 194.645 20.7813 196.175C20.0549 197.374 19.1292 198.475 18.1637 199.499C15.9757 201.825 13.6194 204 11.4935 206.38C6.19188 212.317 2.68848 219.247 0.735261 226.987C0.562527 227.68 0.248063 228.333 -0.00439453 229.004C3.4546e-05 220.227 3.4546e-05 211.444 3.4546e-05 202.667Z" fill="black"/>
<path d="M427.667 0.000140376C430.258 7.4894 425.009 16.5087 417.024 18.2938C406.611 20.6247 397.678 10.9924 400.703 0.702538C400.769 0.469897 400.809 0.232782 400.862 -0.0043335C403.599 -0.0043335 406.336 -0.0043335 409.074 -0.0043335C408.622 1.02913 408.019 2.0268 407.74 3.10948C406.518 7.84284 409.645 11.7441 414.18 11.1446C417.072 10.7643 419.19 9.17605 420.248 6.39778C421.143 4.04452 420.775 1.84785 418.977 -0.0043335C421.874 0.000140376 424.77 0.000140376 427.667 0.000140376Z" fill="black"/>
<path d="M433.054 197.428C433.2 197.879 433.275 198.179 433.39 198.461C435.295 203.056 437.664 207.382 440.667 211.341C444.817 216.813 450.225 220.571 456.483 223.148C458.228 223.864 460.013 224.486 461.785 225.121C463.791 225.841 464.695 227.514 464.057 230.293C463.335 233.447 462.556 236.637 461.32 239.607C457.245 249.419 449.649 255.351 439.817 258.483C429.036 261.919 418.371 261.355 407.958 256.872C393.077 250.461 382.69 239.782 377.787 224.034C376.304 219.265 375.657 214.348 376.463 209.35C376.645 208.214 377.083 207.073 377.619 206.049C378.279 204.792 379.413 204.04 380.892 204.17C382.367 204.295 383.333 205.217 383.815 206.568C384.139 207.476 384.303 208.447 384.471 209.404C385.029 212.518 385.215 215.748 386.158 218.732C390.379 232.064 399.552 240.967 411.971 246.408C420.971 250.354 430.232 249.799 439.152 245.732C445.366 242.9 449.375 238.01 451.182 231.317C451.474 230.23 451.306 229.693 450.185 229.219C443.883 226.544 438.754 222.311 434.613 216.849C429.298 209.838 425.405 202.089 422.871 193.634C421.635 189.513 420.378 185.397 419.137 181.277C418.987 180.771 418.858 180.252 418.796 179.733C418.486 177.219 419.881 174.973 422.127 174.32C424.342 173.671 426.822 174.682 427.69 177.031C429.014 180.606 431.601 182.888 434.413 185.227C441.243 190.914 449.246 194.175 457.338 197.369C461.262 198.917 465.133 200.617 468.942 202.438C478.828 207.172 487.412 213.86 495.065 221.609C504.415 231.076 509.836 242.667 511.346 256.035C512.857 269.394 503.073 280.973 494.374 284.351C489.192 286.359 483.855 287.424 478.341 287.446C474.08 287.464 469.819 287.2 465.559 287.066C465.049 287.048 464.535 287.062 463.893 287.062C464.053 287.464 464.146 287.76 464.283 288.037C466.099 291.755 468.034 295.419 469.691 299.204C470.541 301.145 470.918 303.297 471.449 305.373C471.578 305.865 471.507 306.425 471.454 306.948C471.077 310.576 467.795 312.2 464.739 310.232C462.689 308.908 461.276 306.966 460.12 304.85C459.305 303.356 458.662 301.767 457.848 300.273C455.27 295.544 452.67 290.824 450.039 286.127C448.732 283.791 447.351 281.505 445.991 279.201C445.579 278.503 445.171 277.801 444.68 277.161C443.263 275.322 443.023 273.653 444.002 271.998C444.985 270.338 446.996 269.323 448.998 269.886C450.464 270.298 451.952 271.009 453.139 271.962C454.504 273.058 455.513 274.589 456.74 275.877C457.086 276.239 457.657 276.66 458.082 276.615C462.525 276.172 466.923 276.7 471.33 277.116C475.821 277.541 480.316 277.872 484.807 277.045C495.123 275.143 501.531 267.301 501.359 256.684C501.217 247.884 498.081 240.01 493.688 232.597C489.391 225.345 483.399 219.945 475.683 216.585C472.322 215.122 468.929 213.726 465.505 212.424C456.572 209.028 447.807 205.252 439.29 200.899C437.226 199.861 435.237 198.658 433.054 197.428Z" fill="black"/>
<path d="M237.013 133.196C237.633 133.711 238.209 134.154 238.745 134.646C239.865 135.67 239.821 136.077 238.559 136.959C236.256 138.565 233.306 138.453 230.755 136.663C228.416 135.021 227.402 132.306 228.106 129.487C228.669 127.241 229.98 125.438 231.619 123.899C235.946 119.842 240.942 116.777 246.412 114.63C251.168 112.764 256.071 111.274 260.943 109.731C266.435 107.99 271.901 106.201 277.096 103.637C282.141 101.15 286.357 97.6646 289.998 93.3876C293.993 88.6945 295.898 83.1066 296.974 77.1474C297.249 75.6308 297.461 74.1052 297.74 72.3156C289.945 72.5662 282.575 71.0674 275.427 68.0968C276.405 70.459 277.389 72.7362 279.085 74.6197C279.647 75.246 280.219 75.9126 280.586 76.6598C282.097 79.7154 280.059 83.2453 276.724 83.1961C265.279 83.035 254.145 81.2187 243.546 76.6464C238.488 74.4631 233.988 71.4701 230.077 67.5599C229.847 67.3317 229.634 67.0633 229.36 66.9112C227.092 65.6317 226.45 63.605 227.26 61.2965C228.306 58.3258 229.439 55.3507 230.919 52.5859C236.712 41.7636 246.164 35.782 257.613 32.6905C269.593 29.4559 281.552 29.9928 293.36 33.5808C309.349 38.4395 322.906 47.0875 333.244 60.5046C337.155 65.5825 340.237 71.1301 341.823 77.4248C342.04 78.2838 342.23 79.1786 342.244 80.0554C342.266 81.5587 341.579 82.7353 340.18 83.3482C338.776 83.9656 337.469 83.648 336.384 82.619C335.808 82.0732 335.347 81.3797 334.9 80.7131C330.077 73.4833 324.89 66.5622 318.482 60.6523C307.072 50.1342 293.838 43.6157 278.376 42.1081C263.743 40.6809 251.009 45.0071 240.53 55.5341C238.754 57.3192 237.443 59.5741 235.91 61.6007C235.366 62.321 235.512 62.7863 236.189 63.4082C242.448 69.1526 249.977 72.3022 258.034 74.3155C261.302 75.1342 264.668 75.5637 267.995 76.1587C268.375 76.2258 268.774 76.2169 269.363 76.2526C269.146 75.68 269.004 75.2729 268.836 74.8836C267.277 71.3135 265.687 67.7568 264.154 64.1777C263.676 63.0637 263.22 61.9139 262.976 60.7373C262.591 58.894 263.078 57.2342 264.646 56.0889C266.254 54.9167 267.986 54.9883 269.647 55.9681C270.577 56.5184 271.418 57.2297 272.277 57.9008C277.925 62.3121 284.019 65.7704 291.247 66.6651C293.196 66.9067 295.18 66.8844 297.142 66.9962C297.94 67.0409 298.267 66.6875 298.369 65.8867C298.52 64.7235 298.719 63.5513 299.06 62.4329C299.534 60.867 300.655 60.0304 301.93 60.0796C303.179 60.1288 304.247 60.9475 304.565 62.5268C305.004 64.7101 305.354 66.9336 305.465 69.1526C305.788 75.6263 304.968 81.9882 302.984 88.1487C299.764 98.1567 293.457 105.744 284.661 111.243C279.816 114.272 274.585 116.509 269.168 118.271C264.035 119.94 258.893 121.569 253.746 123.201C248.471 124.879 243.612 127.349 239.294 130.861C238.701 131.344 238.156 131.894 237.602 132.422C237.469 132.561 237.367 132.735 237.013 133.196Z" fill="black"/>
<path d="M170.311 305.266C169.615 308.635 168.88 311.999 168.234 315.381C165.961 327.232 164.566 339.155 165.434 351.257C165.541 352.716 165.718 354.17 165.793 355.633C165.926 358.393 164.646 360.621 162.431 361.592C159.393 362.92 155.969 361.283 154.853 357.829C154.229 355.901 153.742 353.915 153.383 351.924C151.518 341.585 146.434 332.856 140.118 324.754C136.734 320.41 132.482 317.077 127.65 314.527C122.415 311.766 116.887 311.104 111.125 312.406C107.865 313.144 105.447 314.987 103.875 317.972C101.417 322.642 100.181 327.617 100.677 332.892C101.359 340.122 107.351 344.953 114.5 344.233C115.333 344.148 116.161 344.009 117.211 343.866C116.949 343.298 116.79 342.864 116.564 342.466C115.753 341.061 114.877 339.697 114.11 338.269C112.87 335.961 113.14 333.59 114.748 331.961C116.343 330.346 118.77 330.024 121.011 331.169C123.092 332.234 124.572 333.939 125.723 335.939C129.523 342.52 131.286 349.664 131.366 357.248C131.41 361.341 131.051 365.399 129.395 369.184C128.757 370.642 127.894 372.083 126.831 373.255C125.13 375.139 122.627 375.497 120.648 374.463C118.712 373.452 117.623 371.26 118.026 368.777C118.238 367.466 118.681 366.182 119.124 364.925C120.444 361.189 120.603 354.089 119.35 350.64C119.027 350.761 118.69 350.854 118.38 351.007C104.092 357.883 91.3227 347.159 89.7503 335.482C88.4659 325.935 90.9329 317.412 97.2266 310.142C101.355 305.378 106.891 303.606 112.945 303.172C120.922 302.599 128.252 304.478 134.927 309.01C140.065 312.495 144.476 316.719 148.165 321.712C150.066 324.284 151.868 326.933 153.715 329.545C153.945 329.868 154.18 330.185 154.579 330.731C154.685 330.167 154.769 329.845 154.809 329.519C156.342 316.24 158.928 303.19 163.224 290.52C163.614 289.37 164.008 288.202 164.571 287.133C165.576 285.236 167.175 284.14 169.372 284.247C171.516 284.35 172.982 285.554 173.819 287.487C174.337 288.672 174.718 289.92 175.116 291.16C178.855 302.814 184.767 313.323 192.004 323.054C197.178 330.011 204.295 334.453 212.356 337.299C217.37 339.07 219.916 337.858 222.113 332.937C223.539 329.747 223.978 326.311 224.319 322.866C224.363 322.423 224.359 321.967 224.439 321.533C224.687 320.2 225.391 319.202 226.706 318.777C228.008 318.356 229.324 318.598 230.139 319.636C230.958 320.683 231.764 321.958 231.977 323.237C233.093 329.957 232.052 336.288 227.924 341.858C224.146 346.953 218.938 348.703 212.861 347.029C211.891 346.761 210.917 346.466 210.009 346.045C200.145 341.477 191.207 335.581 184.758 326.593C180.041 320.021 175.798 313.099 171.347 306.335C171.108 305.973 170.9 305.588 170.674 305.212C170.537 305.221 170.426 305.243 170.311 305.266Z" fill="black"/>
<path d="M270.533 238.614C270.081 239.187 269.811 239.513 269.563 239.853C265.82 244.94 261.24 249.074 255.881 252.385C248.09 257.198 240.384 262.147 232.624 267.014C227.535 270.204 224.24 274.749 222.504 280.494C221.928 282.395 221.795 284.324 222.216 286.274C223.057 290.189 227.172 292.86 230.884 291.893C231.03 291.853 231.167 291.768 231.304 291.705C230.959 290.09 230.609 288.516 230.299 286.941C230.215 286.507 230.188 286.05 230.21 285.608C230.29 284.131 230.808 282.878 232.27 282.31C233.762 281.729 235.1 282.189 236.083 283.366C237.04 284.507 237.957 285.728 238.634 287.048C241.739 293.079 250.345 294.426 255.239 287.29C255.717 286.596 256.098 285.648 256.081 284.825C255.992 280.525 250.681 275.854 246.332 276.199C246.332 276.548 246.314 276.901 246.337 277.25C246.425 278.606 246.19 278.843 244.835 278.66C242.824 278.391 241.234 277.461 240.433 275.505C239.609 273.497 240.109 271.649 241.447 270.052C243.71 267.354 246.678 266.799 249.889 267.64C251.501 268.061 253.122 268.728 254.526 269.622C259.491 272.785 262.804 277.259 264.27 283.04C264.757 284.963 264.638 286.914 264.035 288.815C261.121 298.022 250.314 303.731 241.287 300.653C238.971 299.861 236.876 298.412 234.679 297.262C234.719 297.155 234.759 297.043 234.799 296.931C234.635 297.043 234.453 297.132 234.312 297.266C228.713 302.55 221.41 300.984 217.06 297.499C212.087 293.513 210.173 288.09 210.948 281.903C212.202 271.877 217.238 264.026 225.453 258.317C227.5 256.894 229.75 255.753 231.982 254.639C239.697 250.796 246.788 245.911 253.906 241.11C258.973 237.692 262.618 232.829 265.479 227.42C267.122 224.315 267.911 220.978 267.547 217.421C267.056 212.616 265.142 211.296 260.616 212.755C259.517 213.108 258.481 213.681 257.44 214.209C256.621 214.625 256.413 215.283 256.873 216.137C257.662 217.6 258.481 219.05 259.176 220.553C259.442 221.121 259.637 221.949 259.411 222.445C259.269 222.759 258.268 222.826 257.679 222.754C256.129 222.562 254.544 222.396 253.064 221.922C247.222 220.052 245.189 213.753 248.879 208.822C249.898 207.458 251.253 206.259 252.675 205.319C254.203 204.308 255.934 203.521 257.675 202.944C268.367 199.391 276.685 204.926 277.725 216.285C278.421 223.886 278.997 231.5 279.652 239.111C279.98 242.886 280.595 246.604 282.092 250.13C282.903 252.031 284.227 253.337 286.136 254.08C287.009 254.42 287.673 254.259 288.275 253.53C290.353 251.002 290.645 247.535 288.001 245.253C287.221 244.582 286.535 243.723 286.012 242.824C283.988 239.352 286.07 235.518 290.065 235.281C292.558 235.133 294.645 236.1 296.385 237.809C300.274 241.629 301.567 246.309 300.602 251.637C299.911 255.458 298.179 258.769 295.446 261.516C292.076 264.907 288.054 265.963 283.466 264.764C276.228 262.876 271.702 257.529 270.732 249.356C270.369 246.309 270.572 243.2 270.524 240.117C270.528 239.723 270.533 239.339 270.533 238.614Z" fill="black"/>
<path d="M323.203 336.901C323.287 335.299 323.389 333.805 323.447 332.315C323.637 327.116 323.823 321.935 322.884 316.759C322.051 312.169 325.674 308.711 330.236 309.597C331.445 309.829 332.637 310.294 333.749 310.845C335.117 311.52 336.437 312.326 337.695 313.194C342.492 316.504 347.536 319.363 352.758 321.922C357.364 324.177 361.855 326.629 365.793 329.993C366.936 330.973 370.479 330.888 371.542 329.926C371.768 329.724 371.892 329.393 372.029 329.103C373.561 325.837 377.291 325.17 379.807 327.743C381.507 329.478 382.11 331.688 381.919 334.019C381.467 339.549 378.739 343.866 374.097 346.631C370.882 348.551 368.176 347.96 365.957 345.338C365.04 344.256 364.119 343.182 363.242 342.068C359.725 337.607 355.424 334.14 350.375 331.595C344.547 328.655 338.727 325.689 332.903 322.736C332.77 322.669 332.61 322.651 332.402 322.593C332.358 322.803 332.305 322.947 332.3 323.099C332.114 329.273 331.897 335.447 331.778 341.621C331.742 343.397 331.933 345.182 332.136 346.949C332.384 349.078 331.826 350.846 330.019 352.031C328.168 353.239 326.268 353.06 324.461 351.87C323.96 351.539 323.508 351.119 323.092 350.685C319.469 346.877 315.877 343.034 312.236 339.24C306.598 333.366 302.267 326.62 298.905 319.202C295.623 311.959 292.315 304.733 289.015 297.499C288.816 297.065 288.585 296.649 288.364 296.22C288.2 296.309 288.102 296.327 288.076 296.376C284.431 304.089 280.985 311.887 279.289 320.316C278.088 326.284 277.575 332.315 278.731 338.364C279.851 344.229 284.984 347.428 290.64 345.938C291.752 345.647 292.332 345.182 292.301 343.866C292.266 342.336 292.416 340.77 292.713 339.267C293.183 336.887 295.185 335.42 297.319 335.679C299.476 335.943 300.969 337.666 300.951 340.117C300.898 348.117 301.164 356.129 299.995 364.088C299.242 369.215 298.134 374.24 296.053 378.995C295.424 380.436 294.728 381.917 293.745 383.111C292.943 384.087 291.77 384.995 290.587 385.362C287.642 386.279 285.073 383.661 285.742 380.619C285.861 380.073 286.061 379.514 286.34 379.031C289.737 373.13 291.026 366.625 291.672 359.945C291.872 357.892 292 355.83 292.173 353.637C291.712 353.687 291.411 353.691 291.119 353.754C281.029 355.95 272.14 350.264 269.957 340.099C268.211 331.975 269.004 323.926 271.051 315.967C272.778 309.243 275.568 302.939 278.744 296.801C280.068 294.247 281.437 291.71 282.712 289.129C283.284 287.97 283.704 286.735 284.134 285.514C284.697 283.93 285.693 282.852 287.385 282.624C289.072 282.4 290.423 283.111 291.274 284.543C292.456 286.525 293.621 288.534 294.587 290.627C297.784 297.548 300.84 304.541 304.06 311.449C305.704 314.974 307.471 318.45 309.393 321.824C312.777 327.76 317.746 332.301 322.769 336.766C322.835 336.824 322.933 336.82 323.203 336.901Z" fill="black"/>
<path d="M218.216 23.4564C207.498 19.421 196.593 17.0677 185.361 16.3385C177.061 15.8016 168.982 17.1393 161.085 19.6089C156.718 20.9734 152.874 23.3401 149.65 26.6463C146.221 30.1627 146.288 32.6413 149.76 36.113C152.657 39.0121 156.116 40.3095 160.164 39.9695C160.802 39.9158 161.426 39.6787 162.281 39.4684C161.856 38.8823 161.55 38.5602 161.364 38.1799C160.873 37.1733 160.244 36.1756 160.014 35.1019C159.668 33.5092 160.306 32.1223 161.661 31.1917C163.025 30.2567 164.487 30.2656 165.873 31.1246C166.476 31.496 167.034 32.0239 167.45 32.6055C168.965 34.7261 170.931 36.2964 173.097 37.6744C175.219 39.021 177.473 39.8263 180.006 39.965C181.269 40.0321 182.549 40.3676 183.753 40.7837C184.909 41.1819 185.764 42.0498 185.782 43.3965C185.804 44.7431 184.967 45.5842 183.842 46.0897C180.879 47.4185 177.805 47.9464 174.7 46.7071C172.499 45.8302 170.387 44.7252 168.234 43.7186C167.875 43.5486 167.534 43.3472 167.202 43.1683C163.313 48.018 158.171 47.4364 153.091 46.47C148.347 45.5663 144.627 42.7925 141.753 38.9271C138.276 34.2519 138.13 28.7803 141.372 23.9351C144.401 19.4031 148.591 16.2311 153.441 13.9092C158.481 11.4933 163.907 10.5224 169.337 9.49792C177.827 7.89628 186.296 8.35708 194.817 9.2787C201.961 10.0527 208.818 11.7304 215.51 14.3208C219.992 16.0521 224.753 16.4101 229.501 16.6695C230.051 16.7009 230.618 16.5443 231.162 16.419C232.407 16.1327 233.616 16.0432 234.812 16.6516C235.153 16.8217 235.587 16.844 235.981 16.8574C236.663 16.8843 237.35 16.8082 238.032 16.8485C243.121 17.1661 247.222 14.9292 250.965 11.7662C250.996 11.7393 251.022 11.7125 251.053 11.6856C252.612 10.2987 253.813 10.0751 254.898 10.9788C256.001 11.8959 256.213 13.6407 255.137 15.2021C251.771 20.0786 247.337 23.4519 241.354 24.1141C237.806 24.5078 234.209 24.4093 230.635 24.6151C229.935 24.6554 229.067 24.8746 228.593 25.3354C222.251 31.5273 217.029 38.5334 213.681 46.8413C212.569 49.5972 212.219 52.4874 212.41 55.4535C212.489 56.7107 212.604 57.9723 212.573 59.225C212.48 63.3723 209.3 66.6114 205.243 66.0119C191.27 63.945 177.655 66.6159 164.013 68.8841C155.598 70.2844 147.236 72.0113 138.865 73.6622C137.301 73.9709 135.778 74.5435 134.272 75.0894C132.646 75.6754 131.38 75.5591 130.591 74.6017C129.816 73.6622 129.803 72.2306 130.667 70.8347C132.451 67.9535 134.861 65.6808 138.085 64.7055C141.77 63.5915 145.539 62.6565 149.335 62.0391C165.227 59.4398 181.176 57.2744 197.231 55.9591C198.555 55.8517 199.88 55.7443 201.208 55.7041C201.966 55.6817 202.285 55.4491 202.223 54.6214C201.784 48.689 203.489 43.307 206.359 38.2157C209.287 33.0126 212.972 28.4224 217.299 24.3467C217.596 24.0425 217.91 23.7472 218.216 23.4564Z" fill="black"/>
<path d="M150.407 235.974C148.051 235.778 145.69 235.616 143.343 235.375C134.861 234.498 126.366 233.688 117.902 232.65C113.699 232.136 109.642 230.856 105.784 229.04C103.423 227.926 101.297 226.485 99.6231 224.436C96.2038 220.244 96.4917 215.171 100.597 211.654C102.387 210.12 104.464 208.854 106.577 207.798C114.943 203.615 123.372 199.566 131.778 195.463C132.195 195.258 132.602 195.034 133.195 194.721C132.673 194.408 132.345 194.193 131.995 194.009C127.243 191.544 122.22 191.213 117.056 192.121C116.276 192.26 115.515 192.913 114.779 192.855C111.555 192.605 109.664 189.764 110.496 186.592C111.032 184.547 112.264 182.937 114.124 182.109C115.86 181.339 117.765 180.673 119.634 180.53C128.496 179.841 136.42 182.373 143.263 188.153C144.02 188.793 144.552 188.838 145.367 188.328C147.249 187.155 149.184 186.068 151.12 184.981C151.784 184.61 152.484 184.27 153.21 184.051C154.677 183.608 156.072 184.158 156.785 185.357C157.524 186.601 157.33 188.158 156.205 189.258C155.691 189.764 155.08 190.18 154.473 190.569C152.675 191.719 150.859 192.837 148.932 194.041C149.246 194.488 149.521 194.873 149.791 195.258C152.444 199.065 154.424 203.159 154.925 207.856C155.018 208.733 155.013 209.655 154.849 210.518C154.402 212.894 152.143 214.035 150.07 212.818C149.029 212.205 148.139 211.234 147.364 210.276C144.769 207.064 142.249 203.798 139.724 200.528C139.232 199.893 138.816 199.817 138.107 200.215C128.895 205.413 119.82 210.822 111.391 217.269C110.948 217.609 110.523 217.967 109.881 218.486C110.7 218.866 111.325 219.197 111.976 219.452C116.79 221.34 121.853 222.105 126.942 222.611C135.313 223.443 143.706 224.011 152.072 224.875C155.824 225.264 159.535 226.056 163.247 226.772C164.372 226.991 165.488 227.465 166.507 228.015C170.488 230.181 171.379 234.923 168.362 238.332C167.282 239.553 165.926 240.605 164.518 241.424C160.855 243.549 157.117 245.54 153.37 247.513C147.001 250.863 140.924 254.689 135.193 259.046C133.373 260.429 131.791 262.133 130.135 263.73C129.156 264.674 128.983 265.806 129.874 266.884C131.021 268.271 132.19 269.658 133.497 270.889C134.405 271.748 134.586 272.128 133.616 273.005C131.592 274.834 129.138 275.38 126.525 275.018C120.369 274.159 116.653 268.253 118.407 262.232C119.262 259.306 120.931 256.854 123.079 254.796C125.205 252.76 127.429 250.792 129.79 249.052C135.906 244.537 142.333 240.506 149.105 237.057C149.561 236.824 150.004 236.574 150.456 236.328C150.451 236.212 150.429 236.091 150.407 235.974Z" fill="black"/>
<path d="M368.003 145.978C367.002 144.372 366.023 142.976 365.23 141.477C364.632 140.345 364.114 139.119 363.83 137.871C363.432 136.117 364.016 134.552 365.443 133.429C366.882 132.301 368.561 132.136 370.098 133.013C371.369 133.737 372.573 134.708 373.543 135.809C375.842 138.417 378.132 141.061 380.156 143.884C386.047 152.103 392.58 159.757 399.573 167.027C400.494 167.985 401.358 169.018 402.12 170.114C403.108 171.537 403.426 173.098 402.394 174.669C401.495 176.042 399.706 176.727 397.886 176.19C396.592 175.805 395.237 175.3 394.183 174.49C391.468 172.401 388.678 170.334 386.335 167.855C382.229 163.511 378.411 158.889 374.527 154.335C373.911 153.615 373.477 153.311 372.542 153.771C369.783 155.131 366.794 155.637 363.768 155.78C356.655 156.12 349.538 156.509 342.42 156.563C339.32 156.585 336.135 156.138 333.128 155.351C327.162 153.794 324.142 149.642 324.057 143.419C323.987 137.911 325.112 132.579 326.795 127.384C328.345 122.597 330.085 117.869 331.808 113.14C333.11 109.569 335.44 107.825 339.192 108.098C345.007 108.514 350.809 109.158 356.598 109.865C365.664 110.97 374.691 112.455 383.841 112.737C393.629 113.037 403.395 112.907 413.073 111.122C413.542 111.037 414.034 110.965 414.508 110.997C415.885 111.095 416.886 111.967 417.179 113.251C417.453 114.45 416.984 115.766 415.815 116.365C414.902 116.835 413.866 117.193 412.851 117.296C405.889 118.012 398.926 118.745 391.951 119.291C381.303 120.128 370.638 119.953 359.973 119.631C354.1 119.452 348.222 119.506 342.349 119.501C341.969 119.501 341.353 119.81 341.242 120.119C338.917 126.695 336.14 133.129 334.9 140.059C334.771 140.779 334.678 141.504 334.607 142.233C334.359 144.788 334.705 145.504 337.229 145.991C339.905 146.506 342.651 146.935 345.361 146.895C352.638 146.783 359.915 146.403 367.188 146.125C367.409 146.121 367.635 146.049 368.003 145.978Z" fill="black"/>
<path d="M66.9234 151.002C64.4697 154.178 61.8654 156.885 60.4791 160.42C59.6464 162.536 59.5136 164.768 60.0894 167.01C60.3418 167.994 60.5943 168.978 60.8644 169.953C61.3251 171.618 60.8334 172.682 59.2168 173.295C57.1174 174.096 55.1775 173.55 53.5919 172.137C50.3764 169.273 48.5826 165.658 48.9148 161.256C49.2735 156.491 51.4571 152.465 54.4777 148.922C57.3743 145.526 61.0239 143.182 65.2669 141.822C66.9899 141.271 68.7261 141.075 70.4711 141.763C70.7236 141.862 71.0203 141.875 71.2993 141.884C73.7619 141.96 75.0862 143.025 75.5823 145.472C75.9543 147.302 76.2378 149.15 76.5345 150.998C77.5399 157.194 80.2239 162.554 84.3917 167.184C85.8267 168.777 87.306 170.338 88.6082 172.038C91.7794 176.172 91.9964 180.239 89.3036 184.717C85.7736 190.591 80.5384 193.692 73.7973 194.394C68.3939 194.958 62.9993 195.615 57.6179 196.345C55.833 196.586 54.0791 197.128 52.3473 197.642C39.3303 201.499 32.3589 210.836 29.2143 223.671C28.0361 228.481 28.2399 233.277 29.2187 238.055C29.8742 241.245 31.6192 243.88 33.8294 246.206C34.6222 247.038 35.4947 247.521 36.7215 247.329C37.7358 247.172 37.9971 247.669 37.4833 248.64C36.5532 250.398 34.9986 251.136 33.1074 251.185C30.4721 251.253 28.0627 250.425 26.0519 248.752C21.1002 244.636 17.9113 239.446 17.3488 232.883C16.7198 225.608 18.6022 218.781 21.2906 212.129C25.6843 201.257 33.0986 193.379 43.8789 188.811C49.3488 186.493 55.1332 185.8 60.9619 185.33C65.2935 184.981 69.634 184.717 73.9612 184.341C77.4203 184.046 79.9095 182.095 81.907 179.362C82.5935 178.422 82.5802 177.559 81.7608 176.749C80.6669 175.671 79.5817 174.584 78.4257 173.573C71.8486 167.792 67.9332 160.616 67.1006 151.794C67.105 151.646 67.0474 151.503 66.9234 151.002Z" fill="black"/>
<path d="M318.871 249.973C319.177 252.013 319.58 253.839 319.709 255.686C320.107 261.52 320.444 267.363 320.714 273.206C320.767 274.356 320.98 274.803 322.238 274.861C327.393 275.098 332.327 276.454 337.102 278.36C340.02 279.523 342.948 280.704 345.738 282.14C356.514 287.683 367.959 291.419 379.426 295.11C380.883 295.58 382.389 295.933 383.775 296.568C384.922 297.092 386.105 297.772 386.951 298.685C389.267 301.181 388.355 304.769 385.215 306.049C383.607 306.702 381.968 306.626 380.36 306.111C368.787 302.384 357.108 298.953 346.119 293.58C338.24 289.728 330.152 286.466 321.547 284.596C318.929 284.028 316.413 282.963 313.889 282.015C311.905 281.272 310.762 279.671 310.532 277.599C310.248 275.018 310.23 272.41 310.031 269.819C309.584 264.03 309.123 258.241 308.6 252.461C308.49 251.217 307.927 250.009 307.861 248.765C307.777 247.213 307.856 245.624 308.113 244.094C308.317 242.886 309.469 242.426 310.536 242.144C313.255 241.432 316.019 241.231 318.783 241.822C328.018 243.795 336.938 246.832 345.796 250.072C348.52 251.069 351.195 252.197 353.892 253.266C354.291 253.422 354.698 253.561 355.203 253.745C355.314 253.221 355.385 252.832 355.478 252.447C355.934 250.64 356.31 248.805 356.891 247.034C357.431 245.378 358.467 244.005 360.009 243.128C361.958 242.019 363.955 241.947 365.824 243.258C367.706 244.578 368.335 246.506 367.879 248.725C367.414 250.989 366.816 253.226 366.267 255.471C365.364 259.194 365.753 262.782 367.197 266.312C368.074 268.446 368.947 270.602 369.545 272.826C370.275 275.541 369.536 277.572 367.782 278.686C366.063 279.778 363.592 279.577 361.643 277.801C360.301 276.575 359.101 275.067 358.211 273.474C356.55 270.517 355.686 267.238 355.252 263.864C355.15 263.055 354.809 262.692 354.065 262.428C342.784 258.447 331.512 254.434 320.24 250.434C319.837 250.3 319.438 250.165 318.871 249.973Z" fill="black"/>
<path d="M148.746 123.291C151.351 121.193 152.719 118.481 153.508 115.43C153.579 115.148 153.339 114.674 153.1 114.442C151.134 112.536 150.673 109.954 151.86 107.167C153.091 104.272 155.235 103.015 158.021 102.984C161.777 102.944 163.779 104.984 165.01 108.223C166.348 111.748 166.237 115.193 164.58 118.611C162.1 123.72 158.34 127.416 152.976 129.514C153.06 129.805 153.122 130.105 153.229 130.391C155.709 137.088 154.522 142.676 149.247 147.405C142.962 153.042 135.778 154.514 127.961 151.074C113.354 144.645 111.555 130.65 115.068 121.103C119.762 108.33 128.156 98.8412 140.371 92.9581C151.922 87.397 164.129 84.9185 176.92 85.6075C180.463 85.7999 183.966 86.4083 187.275 87.7684C188.821 88.4036 190.251 89.3118 191.841 90.1529C192.045 89.8756 192.324 89.4908 192.603 89.106C194.64 86.3367 196.926 83.7911 200.088 82.3639C201.55 81.7018 203.224 81.326 204.827 81.232C206.847 81.1112 208.645 82.6413 209.186 84.4711C209.859 86.7394 208.548 88.2918 206.254 88.0681C205.673 88.01 204.978 88.2515 204.455 88.5602C200.314 91.0298 197.604 94.7565 195.61 99.0738C195.154 100.067 194.818 101.118 194.357 102.112C193.6 103.754 192.439 104.532 191.124 104.362C189.711 104.183 188.537 102.993 188.431 101.203C188.347 99.7718 188.484 98.2685 188.838 96.8816C189.122 95.7855 188.799 95.3426 187.926 94.9087C185.277 93.5889 182.421 92.9894 179.533 92.8373C164.421 92.032 150.23 95.1905 137.39 103.476C130.127 108.165 125.299 114.925 122.3 123.04C121.189 126.051 121.069 129.138 121.72 132.283C122.982 138.35 128.736 144.027 134.813 144.953C138.617 145.535 141.895 144.22 144.579 141.5C148.326 137.701 147.404 131.55 142.687 129.022C138.794 126.933 134.906 127.465 131.132 129.46C130.423 129.836 129.812 130.364 129.883 131.371C129.901 131.639 129.529 132.078 129.236 132.198C127.602 132.883 125.715 131.917 125.069 130.127C124.564 128.731 124.865 127.402 125.432 126.109C127.562 121.233 132.695 118.499 138.458 119.077C142.298 119.452 145.739 120.741 148.746 123.291Z" fill="black"/>
<path d="M435.475 328.508C436.534 327.492 437.535 326.633 438.421 325.662C439.594 324.378 440.618 322.96 441.809 321.694C444.666 318.656 448.603 319.211 450.184 323.081C451.039 325.17 451.393 327.546 451.566 329.823C451.952 334.847 452.045 339.889 452.332 344.918C452.425 346.533 452.709 348.143 452.961 349.75C453.4 352.532 454.892 354.613 457.28 356.026C458.037 356.474 457.864 356.979 457.537 357.552C456.469 359.444 453.825 360.473 451.385 359.838C448.041 358.97 445.6 356.921 443.997 353.839C442.416 350.796 441.716 347.495 441.446 344.117C441.193 340.963 441.167 337.786 441.043 334.623C441.029 334.261 441.043 333.903 441.043 333.295C440.631 333.608 440.374 333.809 440.108 333.997C437.947 335.549 435.843 337.191 433.606 338.623C431.857 339.741 429.886 339.974 427.95 339.017C425.762 337.934 424.863 335.988 424.815 333.644C424.784 332.105 424.912 330.557 425.045 329.022C425.612 322.356 425.288 315.699 424.925 309.042C424.916 308.849 424.85 308.661 424.761 308.254C424.358 308.635 424.039 308.858 423.809 309.154C421.404 312.258 418.857 315.26 416.665 318.508C413.6 323.049 411.886 328.154 411.399 333.648C411.315 334.579 411.324 335.514 411.332 336.449C411.363 340.104 412.834 343.07 415.939 344.918C418.167 346.246 420.629 347.186 423.016 348.242C424.819 349.038 426.706 349.651 428.469 350.519C429.421 350.989 430.293 351.731 431.02 352.519C432.26 353.865 432.65 355.512 431.985 357.275C431.321 359.037 429.935 360.026 428.132 360.178C426.706 360.299 425.222 360.25 423.814 359.99C418.818 359.073 414.114 357.355 409.871 354.46C403.528 350.13 400.286 344.126 400.167 336.386C400.091 331.742 400.844 327.228 402.315 322.848C404.839 315.328 408.834 308.724 414.676 303.342C417.077 301.127 419.774 299.36 422.95 298.479C423.729 298.264 423.862 297.853 423.716 297.141C423.53 296.229 423.393 295.302 423.251 294.376C423.092 293.325 422.87 292.506 421.688 291.947C420.022 291.16 419.61 288.61 420.563 286.762C421.909 284.14 425.138 283.353 427.733 285.026C429.359 286.073 430.515 287.603 431.073 289.388C432.092 292.627 433.124 295.906 433.659 299.253C435.032 307.816 435.409 316.468 435.267 325.139C435.254 326.074 435.232 327.009 435.223 327.944C435.227 328.024 435.285 328.091 435.475 328.508Z" fill="black"/>
<path d="M460.429 45.8887C454.477 48.7385 449.069 52.1789 444.051 56.3888C444.268 56.5544 444.352 56.6662 444.449 56.6796C447.926 57.1628 450.973 58.7197 453.852 60.6122C456.279 62.2093 458.613 63.9452 461.001 65.605C466.28 69.2736 472.051 71.4792 478.54 71.1347C485.799 70.75 492.323 68.4146 497.607 63.1444C499.122 61.6322 500.216 59.8471 500.827 57.7802C502.16 53.2929 500.136 48.8548 495.858 47.0429C492.018 45.4144 488.231 45.571 484.608 47.7006C483.359 48.4343 482.181 49.3022 481.042 50.2015C480.599 50.5504 480.245 51.1097 480.05 51.651C479.727 52.5413 479.195 52.6442 478.447 52.3176C476.879 51.6376 476.153 50.3357 475.936 48.7072C475.555 45.8708 476.635 43.5354 478.469 41.4864C485.857 33.2365 497.86 33.2992 505.181 41.6251C512.041 49.4275 511.78 61.3235 504.525 68.7591C499.791 73.6132 493.896 76.1007 487.301 77.0715C475.851 78.7582 465.213 76.5526 455.385 70.3563C453.237 69.0007 451.026 67.7435 448.794 66.5356C445.681 64.8489 442.421 64.6789 439.095 65.86C437.575 66.3969 436.083 67.0187 434.55 67.5019C433.563 67.8106 432.517 68.1104 431.499 68.1148C428.048 68.1417 425.94 64.8265 427.349 61.6412C427.703 60.8359 428.234 60.0932 428.784 59.3997C433.306 53.6777 438.944 49.3514 445.415 46.1258C449.45 44.117 453.551 42.238 457.732 40.2471C455.779 36.234 453.197 32.6147 448.635 31.2859C445.689 30.4269 442.563 30.2033 439.511 29.7201C439.25 29.6798 438.882 29.6977 438.7 29.8543C437.567 30.8251 436.765 30.1317 436.016 29.3264C434.705 27.9305 434.484 25.7831 435.445 23.8638C436.504 21.7611 438.311 20.6113 440.485 20.0028C443.329 19.2065 446.221 19.2378 449.104 19.7389C459.048 21.4747 466.856 29.6888 467.861 39.6387C468.052 41.54 467.742 43.5175 467.476 45.4368C467.352 46.3226 466.883 47.2174 466.387 47.9869C464.863 50.3446 462.458 50.1612 461.218 47.6424C460.97 47.1369 460.753 46.6179 460.429 45.8887Z" fill="black"/>
<path d="M468.442 138.909C471.002 134.453 473.571 130.194 475.918 125.814C477.601 122.678 478.992 119.376 480.52 116.151C480.954 115.233 481.432 114.339 481.871 113.426C483.633 109.753 485.569 109.27 489.883 110.831C491.11 111.274 492.213 112.285 493.174 113.238C497.16 117.189 499.631 122.034 500.898 127.478C504.052 141.03 501.589 153.713 493.851 165.014C481.804 182.606 457.391 183.661 443.068 167.555C437.261 161.024 433.904 153.369 433.337 144.578C433.2 142.488 433.315 140.336 433.678 138.274C434.918 131.178 440.082 126.566 447.231 126.051C454.26 125.546 459.752 128.713 464.394 133.675C465.793 135.174 466.923 136.927 468.442 138.909ZM486.898 118.915C486.663 119.484 486.486 119.882 486.326 120.289C484.099 125.908 481.809 131.492 478.739 136.726C475.891 141.585 473.203 146.537 470.386 151.414C469.332 153.235 468.194 155.015 466.936 156.697C465.421 158.724 462.671 158.438 461.639 156.116C461.182 155.096 460.939 153.785 461.134 152.707C461.462 150.899 462.055 149.092 462.839 147.423C464.168 144.587 464.292 144.609 462.179 142.198C459.114 138.694 455.42 136.153 450.805 135.312C446.354 134.502 443.147 136.869 442.35 141.339C442.266 141.817 442.199 142.3 442.16 142.788C441.243 153.208 447.55 164.33 457.249 169.394C469.77 175.93 485.086 170.454 490.698 157.413C492.939 152.206 494.099 146.738 494.179 141.075C494.285 133.456 492.695 126.306 487.925 120.15C487.637 119.77 487.318 119.417 486.898 118.915Z" fill="black"/>
<path d="M396.752 84.0192C396.234 84.3011 395.782 84.5471 395.33 84.7887C390.791 87.1778 386.224 89.4997 381.1 90.3498C374.297 91.4772 369.265 88.4797 366.918 81.9255C365.567 78.154 365.39 74.302 366.16 70.3918C367.325 64.4818 369.5 58.9387 372.304 53.6461C373.017 52.3039 373.969 51.0468 375.001 49.9238C376.653 48.1298 378.921 47.7451 380.838 48.707C382.738 49.6599 383.686 51.7268 383.354 54.174C383.296 54.608 383.23 55.042 383.159 55.552C383.527 55.5878 383.801 55.6683 384.063 55.6325C389.236 54.8898 394.427 54.2188 399.578 53.3464C402.169 52.9079 404.592 51.8566 406.748 50.2773C408.56 48.953 409.929 47.2932 410.526 45.0742C411.16 42.7164 410.668 40.7703 408.595 39.5534C406.678 38.426 404.561 37.4954 402.412 36.9541C397.753 35.7819 393.001 35.849 388.266 36.6588C387.77 36.7438 387.225 36.9093 386.835 37.2091C384.926 38.7034 382.017 38.5736 380.249 36.8467C378.522 35.1601 378.398 32.4399 379.97 30.4133C381.109 28.9459 382.654 27.9661 384.382 27.5813C387.548 26.8745 390.759 26.1899 393.984 25.9528C398.701 25.6083 403.298 26.5613 407.621 28.5253C409.331 29.3038 411.014 30.2522 412.506 31.3931C419.212 36.538 420.594 44.5776 416.01 51.7223C415.08 53.1719 413.955 54.5856 412.639 55.6728C404.592 62.3254 395.273 65.1574 384.94 64.6384C383.562 64.5668 382.194 64.0479 380.843 63.6676C380.294 63.511 379.961 63.4931 379.713 64.1105C378.079 68.1594 376.728 72.2843 376.684 76.7089C376.675 77.8677 376.892 79.0488 377.149 80.1851C377.41 81.3349 378.238 82.0552 379.417 82.006C380.812 81.9478 382.313 81.9702 383.558 81.4468C386.33 80.288 389.014 78.8922 391.645 77.4292C393.545 76.3779 395.251 74.9731 397.133 73.8859C401.496 71.3671 405.451 73.0627 406.686 77.984C407.09 79.5856 407.196 81.2678 407.386 82.9231C407.528 84.1311 407.546 85.3569 407.687 86.5649C408.325 91.8977 411.926 95.5081 417.223 96.1076C418.499 96.2508 419.797 96.224 421.072 96.3626C421.488 96.4074 421.874 96.7519 422.277 96.9577C422.055 97.3156 421.909 97.763 421.604 98.018C414.854 103.637 407.174 103.002 401.372 96.3805C398.617 93.2354 397.35 89.4953 397.018 85.3748C396.991 85.0527 396.974 84.7261 396.938 84.404C396.947 84.3414 396.885 84.2742 396.752 84.0192Z" fill="black"/>
<path d="M29.2316 303.32C29.8428 303.19 30.3079 303.114 30.7597 302.993C39.2236 300.743 47.8293 299.284 56.5014 298.188C57.5201 298.058 58.6008 298.094 59.6151 298.277C61.2317 298.568 62.4143 299.517 62.8306 301.199C63.2469 302.881 62.6844 304.344 61.3469 305.288C60.2529 306.062 58.964 306.693 57.6707 307.019C54.2028 307.901 50.6639 308.514 47.1871 309.373C41.2477 310.845 35.3393 312.442 29.4088 313.954C28.0845 314.289 26.7381 314.598 25.3828 314.737C20.8252 315.207 17.5433 312.061 17.8046 307.453C17.8755 306.169 18.1014 304.854 18.4955 303.633C20.5418 297.342 22.65 291.075 24.7715 284.807C25.5023 282.655 26.2996 280.525 27.1278 278.409C27.3847 277.747 27.1588 277.425 26.7203 276.955C25.0417 275.156 23.3941 273.327 21.8306 271.43C21.308 270.794 20.967 269.953 20.7278 269.153C20.2229 267.461 20.5905 265.909 21.8971 264.697C23.2125 263.475 24.7937 263.247 26.3926 263.927C27.336 264.325 28.3148 264.884 29.0057 265.627C34.4136 271.448 41.4514 273.277 48.9189 274.06C61.9802 275.429 74.3905 272.924 86.3313 267.623C89.2855 266.312 91.8012 264.379 94.122 262.151C94.7908 261.511 95.464 260.849 96.2303 260.339C97.6033 259.417 99.1047 259.225 100.549 260.156C102.024 261.104 102.683 262.639 102.276 264.267C101.913 265.708 101.222 267.189 100.292 268.334C97.8425 271.34 94.8351 273.725 91.3583 275.465C80.3742 280.968 68.894 284.552 56.5236 284.753C49.8844 284.86 43.3338 284.315 36.9737 282.252C36.3713 282.055 35.8531 281.836 35.5696 282.735C33.5013 289.361 31.4019 295.978 29.3158 302.599C29.2582 302.747 29.2715 302.912 29.2316 303.32Z" fill="black"/>
<path d="M213.588 163.158C214.115 162.348 214.372 161.892 214.686 161.48C216.56 158.997 218.243 156.317 220.377 154.085C224.926 149.329 229.98 148.631 235.746 151.714C239.622 153.785 243.329 156.192 247.594 157.422C249.49 157.968 251.399 158.456 253.294 159.006C255.562 159.668 256.647 160.881 256.514 162.527C256.39 164.07 254.964 165.507 252.82 165.596C250.637 165.685 248.409 165.462 246.252 165.073C241.074 164.138 236.14 162.424 231.472 159.941C228.31 158.263 227.012 158.585 224.962 161.534C223.619 163.462 222.45 165.507 221.161 167.471C220.453 168.553 219.753 169.663 218.889 170.616C217.18 172.499 215.027 173.058 212.618 172.262C209.167 171.126 206.621 168.866 204.858 165.681C204.548 165.117 204.264 164.536 203.879 163.789C203.538 164.2 203.268 164.522 203.007 164.853C197.922 171.255 192.842 177.667 187.74 184.055C187.062 184.905 186.3 185.706 185.481 186.422C181.326 190.05 176.251 188.748 174.342 183.563C173.939 182.467 173.606 181.308 173.456 180.15C172.247 170.826 171.405 161.471 172.41 152.076C173.292 143.853 176.104 136.341 181.574 130.064C182.987 128.445 184.821 127.188 186.53 125.855C187.08 125.43 187.833 125.197 188.528 125.058C190.893 124.58 192.647 126.557 191.77 128.816C191.203 130.275 190.326 131.621 189.493 132.959C186.765 137.321 184.644 141.938 183.47 146.985C182.464 151.297 182.221 155.668 182.465 160.066C182.69 164.124 183.031 168.173 183.328 172.226C183.355 172.58 183.439 172.924 183.532 173.51C183.997 173.09 184.334 172.835 184.617 172.522C188.763 167.931 192.908 163.346 197.036 158.738C198.033 157.624 198.91 156.393 199.937 155.311C202.719 152.371 206.723 152.403 209.345 155.512C210.368 156.72 210.988 158.281 211.767 159.695C212.334 160.724 212.875 161.798 213.588 163.158Z" fill="black"/>
<path d="M274.93 187.397C278.257 186.471 281.348 185.433 284.524 184.802C286.247 184.458 288.116 184.708 289.901 184.892C290.689 184.972 291.504 185.446 292.177 185.925C293.413 186.802 294.046 188.059 293.785 189.616C293.519 191.191 292.487 192.081 291.017 192.511C290.348 192.707 289.754 192.846 289.179 192.126C288.971 191.866 288.195 191.907 287.744 192.032C284.223 193.034 280.724 194.103 277.207 195.123C275.98 195.477 274.731 195.759 273.486 196.045C273.278 196.094 272.915 196.058 272.822 195.924C272.02 194.743 270.811 193.665 271.241 192.032C271.489 191.088 271.046 190.726 270.395 190.305C265.293 187.035 259.681 185.786 253.706 185.979C247.878 186.162 242.332 187.58 237.013 189.96C227.898 194.041 220.227 200.022 214.084 207.941C211.036 211.869 209.008 216.298 208.348 221.318C207.755 225.872 208.849 229.841 211.989 233.223C213.198 234.525 214.363 235.876 215.43 237.29C216.467 238.663 216.874 240.224 215.948 241.844C215.018 243.468 213.446 243.92 211.776 243.625C210.261 243.356 208.658 242.976 207.351 242.202C201.611 238.802 198.71 233.42 197.519 226.991C196.536 221.68 197.395 216.553 199.348 211.583C202.404 203.816 207.25 197.307 213.601 192.063C224.922 182.717 237.965 177.823 252.643 177.85C255.748 177.854 258.901 178.4 261.94 179.098C267.489 180.382 270.794 182.673 274.93 187.397Z" fill="black"/>
<path d="M513.893 325.085C524.948 323.389 535.808 324.839 546.934 325.336C546.588 324.848 546.38 324.486 546.114 324.177C540.051 317.22 533.943 310.308 526.87 304.344C525.67 303.333 524.514 302.246 523.451 301.087C522.897 300.483 522.437 299.687 522.211 298.899C521.52 296.479 523.601 294.332 526.011 294.985C526.923 295.231 527.787 295.741 528.602 296.246C533.545 299.316 537.766 303.262 541.725 307.498C544.489 310.451 547.284 313.39 549.839 316.522C551.823 318.951 553.684 321.546 555.212 324.289C557.701 328.754 555.765 332.606 550.734 333.178C547.961 333.491 545.109 333.308 542.31 333.116C532.548 332.454 522.848 332.977 513.171 334.315C512.502 334.409 512.214 334.668 512.041 335.317C510.699 340.377 509.326 345.432 507.953 350.483C507.387 352.568 505.925 353.897 504.016 354.094C502.125 354.286 500.349 353.27 499.392 351.409C499.135 350.908 498.909 350.376 498.75 349.834C497.328 344.976 494.064 341.764 489.679 339.625C485.166 337.424 480.312 336.748 475.355 336.793C474.625 336.798 473.823 337.048 473.19 337.424C471.329 338.52 469.531 337.988 468.761 335.943C468.043 334.042 468.552 332.333 469.775 330.825C471.099 329.197 472.88 328.275 474.855 327.711C477.238 327.031 479.647 327.183 482.034 327.622C489.754 329.044 496.588 332.23 502.107 338.001C502.24 338.14 502.404 338.256 502.701 338.511C502.891 337.912 503.077 337.442 503.192 336.954C504.499 331.424 505.788 325.886 507.099 320.356C507.276 319.609 507.471 318.853 507.759 318.146C508.281 316.867 509.26 316.119 510.655 316.142C512.09 316.16 513.22 316.929 513.565 318.289C513.928 319.721 513.946 321.242 514.039 322.732C514.088 323.452 513.955 324.177 513.893 325.085Z" fill="black"/>
<path d="M353.679 216.951C353.737 220.696 353.055 224.311 351.598 227.751C351.128 228.861 350.504 229.926 349.804 230.905C348.865 232.221 347.589 233.303 345.99 233.496C343.537 233.787 340.986 234.024 338.634 233.026C326.919 228.065 315.226 223.054 303.555 217.985C302.001 217.309 300.535 216.343 299.188 215.292C297.51 213.985 297.054 211.985 297.395 210.008C297.727 208.075 298.294 206.12 299.131 204.353C303.276 195.611 310.491 190.922 319.655 189.008C324.452 188.005 329.2 188.426 333.788 190.135C335.892 190.918 337.947 191.875 339.954 192.9C348.333 197.177 352.563 204.272 353.52 213.542C353.591 214.227 353.635 214.92 353.67 215.609C353.697 216.057 353.679 216.504 353.679 216.951ZM343.625 228.302C343.767 227.783 343.829 227.631 343.847 227.474C344.573 221.363 343.958 215.372 341.832 209.623C341.26 208.08 339.971 206.662 338.7 205.552C335.936 203.136 332.703 201.387 329.156 200.505C327.127 200 324.912 199.745 322.849 199.973C315.177 200.828 310.173 205.923 305.491 211.565C305.735 211.677 305.903 211.775 306.089 211.833C315.275 214.603 324.222 218.034 332.938 222.047C335.733 223.331 338.253 225.215 340.91 226.807C341.747 227.308 342.616 227.751 343.625 228.302Z" fill="black"/>
<path d="M557.909 253.414C561.859 248.483 565.664 243.737 569.469 238.99C569.615 239.057 569.756 239.124 569.903 239.191C569.903 240.668 569.783 242.153 569.929 243.611C570.266 246.985 569.477 249.808 567.294 252.555C565.549 254.751 564.353 257.498 563.361 260.169C561.944 263.976 558.6 265.162 555.486 262.545C552.855 260.339 550.357 257.977 547.735 255.758C544.316 252.859 540.852 250.022 537.38 247.186C536.769 246.689 536.042 246.336 535.245 245.844C535.218 246.22 535.179 246.376 535.201 246.524C537.402 260.357 544.108 271.255 555.858 278.866C559.809 281.425 564.185 282.91 568.729 283.912C569.641 284.113 569.951 284.471 569.929 285.433C569.858 288.153 569.907 290.878 569.903 293.598C569.903 293.956 569.867 294.309 569.841 294.806C568.414 294.538 567.072 294.314 565.744 294.036C556.088 292.019 548.112 287.071 541.229 280.029C530.812 269.372 524.916 256.621 523.366 241.773C523.26 240.766 523.189 239.742 523.26 238.735C523.521 235.111 526.555 232.771 530.081 233.483C531.015 233.67 531.932 234.037 532.813 234.422C537.504 236.453 541.822 239.115 545.676 242.502C548.165 244.69 550.574 246.967 553.041 249.177C554.689 250.653 556.381 252.085 557.909 253.414Z" fill="black"/>
<path d="M543.199 183.854C543.527 181.389 543.819 179.205 544.143 176.772C542.132 177.219 540.374 177.134 539.324 175.452C538.828 174.66 538.544 173.528 538.637 172.602C538.894 170.043 540.932 169.112 544.541 169.81C544.652 168.392 544.763 166.983 544.873 165.578C545.489 157.762 546.127 149.946 546.694 142.126C546.8 140.636 546.614 139.129 546.552 137.63C546.503 136.462 545.874 135.948 544.741 136.064C540.422 136.502 536.095 136.905 531.786 137.411C529.389 137.692 527.011 138.126 524.628 138.533C523.88 138.659 523.158 138.923 522.414 139.097C521.829 139.236 521.24 139.419 520.646 139.446C518.667 139.527 517.121 138.435 516.7 136.726C516.279 135.013 517.103 133.245 518.941 132.485C520.416 131.872 521.993 131.447 523.561 131.12C529.744 129.845 535.931 128.566 542.15 127.461C543.899 127.152 545.777 127.237 547.549 127.492C551.375 128.038 553.736 130.413 554.737 134.136C555.672 137.621 555.415 141.173 554.927 144.676C553.231 156.863 551.477 169.045 549.666 181.214C549.382 183.125 548.864 185.044 548.16 186.842C547.004 189.795 544.652 191.008 541.556 190.395C539.745 190.037 537.946 189.545 536.192 188.967C529.823 186.865 523.291 186.301 516.643 186.704C511.545 187.012 506.451 187.446 501.336 186.789C499.577 186.565 498.085 186.077 497.345 184.341C496.557 182.498 496.929 180.691 498.328 179.407C499.515 178.32 500.981 177.326 502.492 176.879C504.626 176.253 506.912 175.94 509.14 175.899C515.602 175.778 521.993 176.535 528.295 177.984C532.432 178.937 536.41 180.346 540.174 182.346C541.051 182.816 541.959 183.241 543.199 183.854Z" fill="black"/>
<path d="M51.5454 228.624C51.5676 225.456 51.8732 222.356 52.9804 219.385C56.0719 211.091 64.2967 207.19 72.588 210.102C77.2783 211.748 80.9279 214.822 83.7138 218.893C88.3422 225.671 90.198 233.107 88.1074 241.218C86.1055 248.98 79.9402 253.83 72.6544 253.597C68.7037 253.472 65.1648 252.094 62.0556 249.691C55.1905 244.394 51.7491 237.321 51.5454 228.624ZM79.3733 234.767C78.9348 230.217 77.3802 226.293 74.4836 222.92C73.0929 221.3 71.4275 220.034 69.3547 219.421C66.7549 218.652 64.6688 219.39 63.154 221.649C62.1176 223.197 61.4488 224.92 61.5418 226.794C61.8253 232.534 63.9823 237.42 68.367 241.178C69.1466 241.844 70.1121 242.359 71.0688 242.743C74.0496 243.938 76.6937 242.958 77.9781 239.997C78.6912 238.359 78.926 236.516 79.3733 234.767Z" fill="black"/>
<path d="M205.11 383.782C197.258 383.787 190.579 379.268 187.855 372.137C186.26 367.963 185.374 363.636 185.928 359.127C186.034 358.245 186.238 357.359 186.548 356.527C187.274 354.577 188.656 353.342 190.769 353.23C192.824 353.123 194.454 354.107 195.233 355.964C195.978 357.735 196.372 359.668 196.824 361.556C197.293 363.525 197.501 365.569 198.077 367.502C199.038 370.71 201.385 372.383 204.645 372.472C209.641 372.606 214.217 371.296 217.972 367.784C219.744 366.128 221.409 364.357 223.168 362.688C225.737 360.245 228.562 358.187 231.942 357.002C237.221 355.149 240.76 356.411 243.586 361.279C244.968 363.659 246.5 365.887 248.803 367.417C250.132 368.303 251.567 369.063 253.024 369.712C254.933 370.562 256.926 371.224 258.866 372.007C260.159 372.53 260.257 372.973 259.322 374.056C257.329 376.373 254.76 377.546 251.757 377.505C244.41 377.411 238.448 374.664 234.697 367.976C234.276 367.224 233.864 367.193 233.284 367.663C232.03 368.678 230.737 369.649 229.559 370.75C228.115 372.101 226.786 373.582 225.382 374.978C220.054 380.302 213.455 382.798 206.164 383.724C205.73 383.778 205.283 383.773 205.11 383.782Z" fill="black"/>
<path d="M80.3882 399.964C80.7469 396.157 80.8222 392.511 81.4866 388.981C82.6913 382.552 87.922 377.948 94.3708 377.241C99.3889 376.691 104.199 377.559 108.925 379.326C117.318 382.467 125.986 384.109 134.959 383.348C138.068 383.084 141.164 382.444 144.211 381.738C146.576 381.187 146.904 380.346 146.288 378.029C146.173 377.599 146.089 377.156 146.058 376.713C145.885 374.235 146.678 373.456 148.857 374.503C150.691 375.385 152.449 376.687 153.844 378.181C155.377 379.818 155.341 382.046 154.699 384.185C153.836 387.048 152.011 389.133 149.517 390.667C145.394 393.204 140.836 394.251 136.088 394.618C125.432 395.437 115.161 393.611 105.173 389.947C102.494 388.963 99.792 388.354 96.9352 388.332C94.7783 388.314 93.1882 389.111 92.3245 391.16C91.2217 393.768 90.0834 396.367 89.0559 399.007C88.768 399.74 88.458 399.995 87.6873 399.982C85.362 399.933 83.0368 399.964 80.3882 399.964Z" fill="black"/>
<path d="M6.13435 91.9918C6.02805 84.8426 11.4492 78.4315 18.9432 76.8388C22.4776 76.0872 25.9766 76.208 29.4313 77.2907C35.4637 79.1742 40.7299 82.2746 44.4902 87.5001C46.6781 90.5423 48.6579 93.759 50.5004 97.0294C52.6662 100.872 54.584 104.859 56.617 108.773C57.4408 110.362 58.2557 112.039 56.9403 113.659C55.6337 115.265 53.7159 115.417 51.8424 115.019C47.9758 114.196 44.3041 112.791 40.7919 110.948C38.7944 109.901 36.8057 108.818 34.7373 107.932C30.977 106.313 27.1237 105.968 23.2306 107.503C22.863 107.646 22.4644 107.789 22.1632 108.035C20.5643 109.337 18.7838 109.462 17.0697 108.536C12.0782 105.843 6.27608 100.005 6.13435 91.9918ZM46.0448 104.223C44.3041 99.3603 41.3189 94.5956 38.3957 91.3789C34.9012 87.5314 30.5208 85.3302 25.4894 84.6413C23.5716 84.3773 21.4678 84.7263 19.5766 85.2631C16.8926 86.0237 15.183 88.028 14.43 90.7705C13.4423 94.3719 15.6126 100.049 18.7306 102.103C18.7882 102.139 18.8812 102.116 18.6243 102.098C20.0151 101.002 21.1135 99.9151 22.4112 99.1635C25.2857 97.4947 28.448 96.9534 31.73 97.441C36.4071 98.1345 40.5394 100.157 44.3351 102.939C44.9065 103.36 45.4734 103.794 46.0448 104.223Z" fill="black"/>
<path d="M541.277 388.735C535.874 388.793 530.692 387.916 525.855 385.37C523.114 383.93 520.647 382.136 518.702 379.684C515.141 375.192 514.384 370.186 516.156 364.768C517.17 361.663 518.977 359.033 521.2 356.688C527.476 350.076 535.329 346.676 544.147 345.267C544.542 345.204 544.949 345.182 545.348 345.2C547.584 345.28 549.228 346.461 549.746 348.345C550.273 350.268 549.427 352.224 547.483 353.387C546.654 353.879 545.729 354.197 544.878 354.657C541.122 356.684 537.278 358.567 533.668 360.836C531.626 362.12 529.757 363.865 528.212 365.739C525.271 369.3 525.913 372.338 529.85 374.709C533.181 376.714 536.901 377.693 540.644 378.454C543.749 379.085 546.933 379.304 550.082 379.715C550.481 379.769 550.88 379.836 551.265 379.939C552.975 380.404 554.1 381.738 554.206 383.393C554.308 385.004 553.448 386.538 551.832 387.129C550.406 387.652 548.904 388.046 547.407 388.252C545.383 388.533 543.324 388.583 541.277 388.735Z" fill="black"/>
<path d="M395.96 399.964C392.758 399.964 389.387 399.987 386.021 399.924C385.711 399.919 385.255 399.414 385.126 399.047C383.979 395.754 383.545 392.332 383.519 388.86C383.501 386.909 383.638 384.963 383.696 383.013C383.709 382.534 383.696 382.051 383.696 381.384C382.828 381.639 382.061 381.827 381.322 382.087C375.781 384.037 370.129 385.446 364.217 385.406C362.458 385.393 360.656 385.321 358.95 384.932C353.494 383.684 349.897 379.51 349.432 373.877C348.923 367.721 350.451 361.95 353.073 356.438C353.228 356.111 353.445 355.807 353.671 355.525C354.623 354.331 355.815 353.673 357.369 354.049C358.911 354.425 359.872 355.516 360.018 357.028C360.177 358.626 360.075 360.267 359.907 361.869C359.593 364.898 358.968 367.9 358.795 370.929C358.552 375.246 359.885 376.588 364.155 376.682C368.455 376.776 372.645 376.221 376.662 374.481C378.912 373.506 381.238 372.651 383.607 372.047C388.656 370.763 392.226 373.103 393.068 378.293C393.475 380.803 393.409 383.389 393.586 385.939C393.794 388.891 393.896 391.862 394.321 394.783C394.578 396.515 395.371 398.157 395.96 399.964Z" fill="black"/>
<path d="M533.951 16.8665C532.707 17.9134 531.498 19.0543 530.169 20.0206C527.693 21.8191 525.301 23.8234 522.6 25.1879C516.142 28.4404 511.08 26.1588 508.759 19.2556C508.36 18.07 508.081 16.8486 507.691 15.4438C506.863 16.0165 506.075 16.4907 505.371 17.0634C500.499 21.0407 494.922 23.4342 488.779 24.4811C487.459 24.7048 486.029 24.6958 484.709 24.4632C480.599 23.725 478.336 20.9467 478.265 16.7368C478.238 15.2738 478.282 13.8109 478.349 12.3479C478.429 10.6702 479.465 9.36833 480.9 9.03279C482.424 8.67935 484.098 9.33701 484.7 10.9118C485.236 12.3166 485.422 13.8869 485.599 15.4036C485.799 17.0947 486.002 17.3945 487.703 17.1708C491.605 16.6563 495.184 15.2962 498.315 12.8311C500.06 11.4576 501.743 9.97677 503.608 8.79567C505.118 7.84274 506.806 7.01954 508.52 6.57663C511.301 5.85186 513.817 7.33719 514.707 10.102C515.146 11.4666 515.172 12.9698 515.389 14.4059C515.611 15.8868 515.766 17.381 516.08 18.8395C516.315 19.9267 517.125 20.4412 518.184 20.0027C519.663 19.3943 521.227 18.835 522.498 17.9045C525.687 15.5691 528.73 13.028 531.843 10.5807C532.826 9.80677 533.801 9.00594 534.855 8.34381C537.419 6.73322 540.369 7.87853 540.918 10.876C541.233 12.585 541.073 14.4417 540.817 16.182C540.542 18.0476 540.75 19.4569 542.61 20.3159C543.509 20.732 543.204 21.3046 542.579 21.7923C540.241 23.6131 537.233 23.1792 535.639 20.6604C534.952 19.5598 534.558 18.2579 533.951 16.8665Z" fill="black"/>
<path d="M307.174 126.789C304.428 126.015 301.673 125.273 298.94 124.454C296.549 123.738 294.175 122.973 291.818 122.159C291.034 121.886 290.25 121.483 289.595 120.973C288.66 120.244 288.337 119.197 288.718 118.025C289.094 116.866 289.936 116.213 291.118 116.097C291.663 116.043 292.252 116.106 292.784 116.253C299.259 118.047 305.726 119.855 312.188 121.694C312.994 121.922 313.795 122.253 314.508 122.682C316.528 123.895 316.971 126.239 315.554 128.132C315.098 128.74 314.513 129.255 313.942 129.765C310.212 133.089 306.071 135.804 301.708 138.189C301.013 138.569 300.358 139.03 299.525 139.553C301.505 140.717 303.427 141.428 305.522 141.647C306.04 141.701 306.567 141.732 307.081 141.826C309.778 142.318 311.284 144.005 311.333 146.756C311.359 148.13 311.165 149.508 311.072 150.886C310.682 156.599 310.301 162.308 309.902 168.021C309.827 169.072 309.787 170.137 309.579 171.166C309.074 173.667 306.696 174.638 304.574 173.251C303.214 172.36 302.453 171.032 302.142 169.466C301.934 168.437 301.819 167.372 301.806 166.325C301.731 160.912 302.001 155.516 303.006 150.192C303.232 149.007 302.878 148.591 301.828 148.17C299.516 147.244 297.226 146.224 295.021 145.065C292.806 143.902 290.972 142.269 290.999 139.459C291.021 136.708 292.841 135.142 295.007 133.966C296.845 132.968 298.816 132.212 300.65 131.21C302.931 129.966 305.132 128.583 307.369 127.259C307.307 127.098 307.24 126.946 307.174 126.789Z" fill="black"/>
<path d="M456.146 386.972C448.103 386.842 440.06 386.744 432.017 386.556C430.462 386.52 428.885 386.265 427.371 385.894C425.169 385.353 423.911 383.796 423.898 381.921C423.88 379.997 425.156 378.333 427.406 377.845C429.439 377.403 431.538 377.147 433.616 377.054C446.243 376.463 458.875 376.651 471.502 377.121C474.474 377.233 477.454 377.17 480.431 377.206C482.22 377.228 483.965 377.425 485.476 378.548C487.85 380.315 487.872 382.789 485.533 384.619C484.08 385.751 482.38 386.001 480.635 386.05C472.472 386.292 464.309 386.507 456.146 386.735C456.146 386.816 456.146 386.892 456.146 386.972Z" fill="black"/>
<path d="M408.073 139.903C408.215 135.715 409.734 131.501 412.968 128.141C415.935 125.063 419.208 122.284 422.339 119.367C426.299 115.681 430.307 112.044 434.196 108.286C436.242 106.308 437.505 103.803 438.094 100.984C438.151 100.707 438.235 100.434 438.324 100.166C438.621 99.2663 439.152 98.3805 440.109 98.4297C440.937 98.4744 441.969 98.8368 442.509 99.4318C443.838 100.895 444.206 102.836 443.723 104.693C443.178 106.787 442.585 109.024 441.38 110.751C438.957 114.222 436.256 117.533 433.386 120.642C429.599 124.741 425.528 128.566 421.604 132.534C419.066 135.102 417.467 138.162 417.445 141.849C417.436 143.401 417.755 144.971 418.079 146.497C418.38 147.92 418.942 149.284 419.279 150.702C419.571 151.942 419.297 152.224 418.008 152.259C416.17 152.313 414.518 151.763 413.052 150.649C409.951 148.278 408.034 144.345 408.073 139.903Z" fill="black"/>
<path d="M527.366 199.454C535.865 199.463 542.903 205.655 543.399 212.661C544.015 221.304 536.122 227.716 527.592 225.488C525.129 224.843 522.968 223.64 521.152 221.823C520.838 221.51 520.523 221.193 520.173 220.924C513.534 215.828 514.034 206.004 521.179 201.534C523.384 200.152 525.798 199.463 527.366 199.454ZM529.877 215.967C530.351 215.891 531.078 215.842 531.769 215.65C534.816 214.799 535.555 211.968 533.359 209.672C531.751 207.995 528.557 207.507 526.533 208.639C525.506 209.212 524.921 210.075 524.903 211.287C524.859 214.003 526.268 215.623 528.912 215.9C529.147 215.918 529.386 215.931 529.877 215.967Z" fill="black"/>
<path d="M519.54 74.0114C520.744 73.0585 521.763 72.2085 522.83 71.4345C523.645 70.8439 524.482 70.2623 525.386 69.8328C527.06 69.0365 528.836 69.4481 529.886 70.7365C530.949 72.0429 530.984 73.8325 529.864 75.3625C528.238 77.586 526.157 79.2951 523.774 80.6417C521.143 82.1315 521.072 82.391 523.105 84.6637C525.793 87.6702 528.858 90.2158 532.486 92.0143C534.364 92.9448 536.259 93.8351 538.102 94.8328C538.899 95.2668 539.692 95.826 540.29 96.5061C541.539 97.9377 541.074 99.4275 539.24 99.9196C538.447 100.13 537.566 100.143 536.738 100.081C528.668 99.4454 522.135 95.6829 516.576 89.9429C516.351 89.7102 516.138 89.4687 515.912 89.236C515.859 89.1823 515.775 89.1555 515.66 89.0884C514.792 89.9563 513.972 90.9092 513.024 91.6966C512.01 92.5333 510.947 93.3743 509.773 93.9291C508.485 94.5375 507.138 94.2781 506.155 93.1193C505.203 91.9964 505.198 90.6811 505.894 89.4776C506.491 88.4397 507.333 87.5404 508.082 86.592C509.131 85.2632 510.265 84.0016 511.213 82.6013C511.536 82.1226 511.576 81.2815 511.439 80.6775C510.779 77.8276 510.606 74.9733 511.191 72.1011C511.328 71.4345 511.55 70.7634 511.86 70.1549C512.666 68.5533 514.198 67.7212 515.806 67.9225C517.467 68.1328 518.773 69.3586 519.15 71.1526C519.323 72.0116 519.389 72.8974 519.54 74.0114Z" fill="black"/>
<path d="M89.4098 124.575C88.7366 124.767 88.2892 124.897 87.8419 125.027C85.7204 125.649 83.621 126.387 81.464 126.861C78.8863 127.429 76.8268 126.306 76.1668 124.217C75.5246 122.168 76.5079 120.173 78.873 119.009C80.8971 118.016 82.9788 117.139 85.0471 116.236C88.1121 114.893 91.1726 113.551 94.2596 112.263C95.1056 111.909 96.018 111.628 96.9215 111.547C100.589 111.207 103.481 114.312 102.958 117.994C102.852 118.75 102.555 119.475 102.352 120.217C101.572 123.107 100.686 125.98 100.053 128.901C99.4195 131.836 99.0519 134.825 98.5381 137.786C98.4274 138.422 98.2458 139.057 98.011 139.656C96.9791 142.283 94.5697 143.07 92.4083 141.262C91.3143 140.35 90.4285 139.008 89.8483 137.683C88.4487 134.476 88.2936 131.075 88.927 127.64C89.1042 126.696 89.2282 125.747 89.4098 124.575Z" fill="black"/>
<path d="M273.291 399.955C269.141 399.955 265.368 399.973 261.594 399.928C261.209 399.924 260.801 399.593 260.447 399.347C259.22 398.497 258.078 397.513 256.793 396.77C251.527 393.723 247.169 394.291 242.93 398.653C241.969 399.642 241.039 400.049 239.692 399.991C237.287 399.888 234.874 399.964 232.3 399.964C232.415 399.28 232.464 398.689 232.615 398.13C234.444 391.379 242.164 384.503 249.038 383.814C251.27 383.59 253.653 383.818 255.832 384.373C262.228 385.992 267.472 389.455 271.028 395.186C271.905 396.6 272.476 398.215 273.291 399.955Z" fill="black"/>
<path d="M198.529 268.553C198.183 269.927 197.824 272.231 197.014 274.365C195.787 277.604 193.905 278.382 190.592 277.447C188.771 276.933 187.39 275.77 186.229 274.333C183.093 270.441 181.477 265.905 180.852 260.974C180.476 258.008 180.418 255.029 181.357 252.17C181.827 250.743 182.602 249.347 183.523 248.166C184.599 246.788 186.194 246.555 187.97 246.542C190.782 246.519 192.169 248.233 193.387 250.309C196.518 255.646 198.29 261.399 198.529 268.553Z" fill="black"/>
<path d="M70.8831 399.964C70.4933 399.964 70.1035 399.964 69.7138 399.964C58.6145 399.964 47.5153 399.982 36.416 399.928C35.6542 399.924 34.7241 399.611 34.1572 399.114C27.8413 393.549 23.3546 386.874 22.3625 378.261C22.1278 376.23 22.3227 374.132 22.46 372.074C22.5131 371.255 22.8409 370.405 23.2218 369.663C23.9171 368.303 25.082 367.524 26.6277 367.538C28.2266 367.551 29.4801 368.338 30.0425 369.815C30.7158 371.586 31.1542 373.452 31.668 375.286C34.4052 385.089 39.7688 392.716 49.5172 396.34C52.8744 397.584 56.5196 398.121 60.085 398.676C63.0923 399.145 66.1705 399.159 69.2177 399.4C69.7935 399.445 70.356 399.615 70.9229 399.727C70.9052 399.803 70.8964 399.884 70.8831 399.964Z" fill="black"/>
<path d="M251.882 99.6332C251.275 99.5258 250.451 99.4855 249.703 99.2261C244.725 97.4857 239.729 95.7991 234.812 93.8843C231.566 92.6182 228.66 90.6899 226.233 88.113C224.129 85.8805 222.632 83.317 222.309 80.1942C222.225 79.3621 222.278 78.4763 222.473 77.662C222.867 76.0022 223.904 74.839 225.578 74.4185C227.203 74.0113 228.612 74.5213 229.741 75.7382C230.233 76.2706 230.667 76.8657 231.056 77.4786C232.629 79.9705 234.715 81.8943 237.262 83.317C241.859 85.8805 246.642 87.9743 251.745 89.2985C252.905 89.5983 254.074 89.992 255.12 90.5646C257.188 91.6921 258.167 93.6606 257.813 95.5709C257.436 97.5842 255.704 99.1366 253.397 99.499C252.967 99.5661 252.52 99.5795 251.882 99.6332Z" fill="black"/>
<path d="M484.745 97.423C479.275 97.2351 474.252 95.3963 469.544 92.5867C467.812 91.5532 466.182 90.3408 464.411 89.3879C462.936 88.596 461.363 87.8936 459.756 87.4552C457.413 86.8199 456.195 87.4373 454.835 89.4013C454.441 89.9695 453.905 90.4348 453.431 90.9448C452.829 90.2692 452.014 89.6921 451.668 88.9002C450.583 86.4083 452.023 82.7039 454.516 81.1828C456.496 79.9749 458.697 79.7512 460.814 80.373C463.264 81.0889 465.651 82.0955 467.963 83.1961C469.734 84.0416 471.311 85.2898 473.025 86.2696C477.321 88.7258 481.879 90.3006 486.893 90.2916C488.155 90.2916 489.147 89.88 489.971 88.9271C490.525 88.2873 491.1 87.6565 491.729 87.0838C492.832 86.0772 494.147 85.9206 495.157 86.5962C496.229 87.312 496.659 88.6363 496.039 90.0724C494.28 94.1347 491.472 96.9129 486.848 97.2887C486.171 97.3514 485.489 97.3782 484.745 97.423Z" fill="black"/>
<path d="M35.1448 133.156C35.4858 133.737 35.6896 134.073 35.88 134.413C37.1246 136.61 36.9209 139.231 35.3663 141.012C33.8161 142.788 31.3181 143.258 28.9441 142.211C25.2458 140.587 23.1199 135.948 24.0012 131.42C24.8073 127.282 27.9475 124.333 32.4209 123.653C37.5276 122.875 42.032 124.459 46.1466 127.42C46.3105 127.537 46.4522 127.684 46.5984 127.827C48.2017 129.402 48.5959 131.429 47.6082 132.999C46.6427 134.538 44.7958 134.936 42.6432 134.176C40.3091 133.353 37.8775 133.133 35.1448 133.156Z" fill="black"/>
<path d="M278.217 135.872C278.208 142.363 272.566 146.859 266.033 145.553C264.04 145.155 262.162 144.448 260.598 143.079C258.738 141.459 258.175 139.478 258.494 136.972C258.928 133.612 260.346 130.977 263.047 129.022C264.788 127.765 266.728 127.063 268.872 126.91C274.218 126.548 278.226 130.382 278.217 135.872ZM265.612 137.938C267.614 138.793 269.766 138.193 270.515 136.561C270.741 136.073 270.803 135.299 270.564 134.869C270.395 134.57 269.563 134.476 269.075 134.561C267.184 134.892 266.436 136.435 265.612 137.938Z" fill="black"/>
<path d="M212.787 126.378C213.119 119.251 215.834 114.28 221.016 110.746C221.981 110.088 223.195 109.619 224.346 109.467C226.782 109.153 228.559 111.202 227.996 113.623C227.726 114.786 227.168 115.904 226.61 116.974C225.64 118.844 224.493 120.624 223.563 122.512C221.375 126.955 221.76 131.308 224.245 135.518C224.617 136.144 225.06 136.73 225.396 137.375C225.875 138.292 225.595 138.761 224.599 138.833C219.634 139.195 215.528 136.565 213.96 131.782C213.309 129.805 213.061 127.689 212.787 126.378Z" fill="black"/>
<path d="M381.609 181.46C381.498 188.583 379.235 193.844 374.819 198.148C373.579 199.356 372.175 200.277 370.359 200.304C367.994 200.336 366.302 198.716 366.501 196.336C366.594 195.209 367.068 194.068 367.56 193.025C368.078 191.934 368.849 190.967 369.469 189.925C371.457 186.592 372.193 183.017 371.484 179.161C371.325 178.284 371.178 177.389 371.174 176.503C371.174 174.647 371.971 173.184 373.668 172.383C375.399 171.564 377.189 171.743 378.486 173.099C379.505 174.163 380.333 175.573 380.798 176.982C381.365 178.691 381.458 180.557 381.609 181.46Z" fill="black"/>
<path d="M90.8715 295.338C90.8715 296.671 91.0221 298.027 90.836 299.333C90.5791 301.159 89.3922 302.062 87.6117 302.465C86.2962 302.765 85.0118 303.257 83.7539 303.771C81.8184 304.563 79.9671 305.57 78.0006 306.263C74.6566 307.435 72.5307 305.525 73.04 301.982C73.35 299.816 73.6158 297.642 73.855 295.463C74.227 292.094 75.6133 290.685 78.9174 290.153C80.1265 289.956 81.2958 289.5 82.4651 289.11C83.8735 288.641 85.2377 288.023 86.6638 287.634C89.401 286.882 91.2302 288.605 90.9423 291.455C90.8139 292.739 90.9202 294.045 90.9202 295.338C90.9069 295.338 90.8892 295.338 90.8715 295.338Z" fill="black"/>
<path d="M418.176 229.617C410.571 229.72 406.372 224.329 404.056 217.488C403.582 216.088 403.4 214.553 403.294 213.068C403.148 211.032 404.849 209.977 406.571 211.059C407.298 211.516 407.891 212.348 408.303 213.135C408.994 214.455 409.437 215.905 410.088 217.251C411.182 219.519 412.706 220.097 415.044 219.184C416.506 218.611 417.936 217.963 419.394 217.385C422.219 216.267 424.54 216.822 426.086 218.956C427.711 221.202 427.636 224.02 425.829 226.279C423.863 228.736 421.272 229.782 418.176 229.617Z" fill="black"/>
<path d="M163.615 399.96C163.584 399.794 163.557 399.749 163.566 399.714C165.068 393.772 166.538 387.827 168.115 381.908C168.376 380.923 168.974 379.966 169.616 379.161C170.79 377.689 172.407 377.116 174.262 377.505C176.162 377.899 177.531 379.103 177.934 380.973C178.266 382.525 178.43 384.243 178.142 385.787C177.301 390.292 176.207 394.752 175.166 399.217C175.099 399.508 174.679 399.924 174.422 399.928C170.808 399.978 167.198 399.96 163.615 399.96Z" fill="black"/>
<path d="M179.891 224.356C177.907 224.342 175.825 223.251 174.235 221.13C171.733 217.797 170.666 214.137 171.875 210.035C172.57 207.673 173.456 205.364 174.306 203.047C174.528 202.447 174.9 201.892 175.267 201.364C176.782 199.172 179.223 198.497 181.26 199.678C183.297 200.859 183.824 203.279 182.761 205.771C181.845 207.923 180.963 210.111 180.321 212.357C179.696 214.558 180.551 215.967 182.642 216.866C184.591 217.703 185.587 219.466 185.171 221.318C184.728 223.277 182.996 224.418 179.891 224.356Z" fill="black"/>
<path d="M419.106 399.964C414.407 399.964 409.708 399.982 405.004 399.933C404.659 399.928 404.109 399.53 404.008 399.199C403.671 398.121 403.379 397.007 403.281 395.884C402.781 390.023 404.362 384.717 407.71 379.944C409.19 377.836 410.912 377.13 412.604 377.765C414.248 378.382 414.916 379.948 414.779 382.57C414.593 386.135 414.469 389.701 414.314 393.271C414.239 395.003 414.686 396.551 415.789 397.906C416.67 398.984 417.645 399.825 419.106 399.964Z" fill="black"/>
<path d="M352.824 53.5881C349.932 53.5881 347.044 53.5702 344.152 53.5926C341.344 53.6149 339.785 51.7717 340.658 49.0605C341.415 46.7207 342.505 44.4838 343.545 42.2468C344.064 41.1284 345.042 40.7302 346.322 40.6989C348.608 40.6452 350.889 40.3231 353.179 40.2381C354.538 40.1889 355.925 40.2604 357.262 40.4975C359.481 40.8868 360.411 42.3139 359.982 44.5554C359.441 47.3649 358.56 50.0493 356.877 52.407C355.832 53.8565 354.321 53.7447 352.824 53.5881Z" fill="black"/>
<path d="M350.765 168.772C352.254 169.197 353.702 169.372 354.924 169.998C360.403 172.799 363.667 177.385 364.996 183.393C365.311 184.825 365.093 186.238 364.292 187.496C363.685 188.449 362.804 188.999 361.665 188.936C360.585 188.874 360.035 188.162 359.544 187.218C357.444 183.169 354.455 179.903 350.548 177.599C349.49 176.978 348.126 176.776 346.872 176.629C344.795 176.387 343.493 174.803 344.246 172.844C344.649 171.792 345.517 170.692 346.474 170.15C347.758 169.417 349.33 169.206 350.765 168.772Z" fill="black"/>
<path d="M489.347 250.389C489.276 256.921 484.759 261.936 478.323 262.612C477.964 262.648 477.597 262.666 477.238 262.643C475.471 262.545 474.142 261.659 473.726 260.33C473.309 258.992 473.876 257.538 475.351 256.447C476.29 255.753 477.331 255.199 478.288 254.528C480.126 253.244 481.131 251.472 481.233 249.199C481.291 247.893 481.091 246.765 479.856 245.924C478.766 245.186 478.536 243.719 479.045 242.515C479.603 241.191 481.051 240.39 482.615 240.569C484.63 240.802 486.118 241.925 487.292 243.513C488.793 245.544 489.356 247.884 489.347 250.389Z" fill="black"/>
<path d="M13.6503 14.7504C13.8009 16.1194 14.133 17.4571 14.0533 18.7724C13.9204 20.9378 13.6237 23.1031 13.2029 25.2282C12.9638 26.4407 11.9716 27.1207 10.7094 27.1654C9.4515 27.2102 8.53468 26.5838 8.05634 25.4251C7.84374 24.9151 7.69315 24.3111 7.73745 23.7698C8.02091 20.392 7.08194 17.2558 5.98353 14.1375C5.82408 13.6812 5.65578 13.2159 5.57163 12.7372C5.26602 11.0147 6.1164 9.64574 7.79502 9.25204C8.76942 9.02387 9.77482 8.88518 10.7758 8.80465C13.8186 8.56306 16.8613 8.32595 19.9085 8.16936C21.3081 8.09778 22.7254 8.13357 24.1206 8.26331C25.9985 8.43779 27.1634 9.67258 27.1457 11.2787C27.1279 12.9027 25.941 14.1017 24.0586 14.2225C20.6172 14.4462 17.1669 14.5804 13.6503 14.7504Z" fill="black"/>
<path d="M473.893 348.662C478.34 348.734 484.244 353.105 485.635 357.395C486.29 359.422 486.18 361.368 484.581 362.934C482.946 364.531 480.949 364.692 478.978 363.793C477.68 363.202 476.569 362.209 475.337 361.449C474.013 360.63 472.662 359.856 471.307 359.086C470.642 358.711 469.889 358.473 469.278 358.035C466.501 356.035 466.457 352.255 469.141 350.125C470.39 349.141 472.038 348.631 473.893 348.662Z" fill="black"/>
<path d="M395.906 282.923C397.071 283.017 398.245 283.026 399.387 283.227C400.339 283.397 400.658 283.035 400.858 282.176C401.097 281.152 401.429 280.145 401.823 279.17C402.572 277.308 403.869 276.409 405.464 276.53C406.992 276.646 408.166 277.711 408.578 279.626C408.888 281.044 408.989 282.512 409.149 283.961C409.291 285.254 409.339 286.556 409.499 287.844C409.933 291.361 407.001 293.996 403.555 293.079C401.42 292.511 399.321 291.799 397.213 291.128C395.986 290.739 394.781 290.287 393.559 289.88C391.986 289.357 391.047 288.287 390.941 286.878C390.835 285.446 391.548 284.283 393.129 283.585C393.993 283.205 394.936 283.008 395.844 282.731C395.866 282.793 395.888 282.861 395.906 282.923Z" fill="black"/>
<path d="M278.736 18.8887C278.368 22.9018 275.958 24.7271 272.433 23.0539C271.348 22.5394 270.183 22.186 269.049 21.7833C267.1 21.0899 265.125 20.4591 263.194 19.7119C261.475 19.0453 261.019 16.8397 262.361 15.3454C263.322 14.2717 264.474 13.3546 265.608 12.4553C267.459 10.9834 269.483 9.77993 270.971 7.80695C271.631 6.93455 273.075 6.514 274.244 6.22768C275.471 5.92345 276.716 6.96139 276.955 8.29013C277.571 11.6679 278.124 15.0591 278.7 18.4413C278.727 18.5935 278.727 18.7545 278.736 18.8887Z" fill="black"/>
<path d="M207.794 327.103C206.554 326.57 205.217 326.19 204.092 325.474C200.65 323.286 198.077 320.249 196.23 316.598C195.871 315.887 195.645 315.077 195.521 314.285C195.185 312.097 196.203 310.048 198.033 309.042C199.857 308.035 202.227 308.183 203.728 309.802C206.089 312.339 208.33 315.01 210.425 317.775C211.276 318.893 211.736 320.378 212.139 321.765C212.923 324.477 210.797 326.951 207.794 327.103Z" fill="black"/>
<path d="M467.409 103.431C469.969 103.463 470.749 104.393 470.439 106.447C470.368 106.925 470.306 107.422 470.138 107.874C469.066 110.755 467.998 113.641 466.86 116.5C465.89 118.938 463.809 119.654 461.572 118.343C460.779 117.878 460.066 117.265 459.348 116.679C457.692 115.327 456.08 113.918 454.401 112.594C452.993 111.48 451.837 110.254 452.404 108.29C452.957 106.371 454.574 106.017 456.283 105.771C459.105 105.373 461.922 104.926 464.721 104.384C465.802 104.17 466.816 103.646 467.409 103.431Z" fill="black"/>
<path d="M106.728 91.2445C107.197 86.4038 108.57 82.4042 110.931 78.7893C112.18 76.8789 114.204 76.2973 115.975 77.1026C117.721 77.8945 118.571 79.8227 118.039 82.0507C117.698 83.4689 117.189 84.8424 116.786 86.2472C116.405 87.5715 116.006 88.8957 115.732 90.2469C115.276 92.4838 115.657 93.2086 117.65 94.2599C118.854 94.8952 118.939 95.3918 118 96.3671C114.691 99.8165 109.77 99.0738 107.724 94.7341C107.153 93.5173 106.967 92.1125 106.728 91.2445Z" fill="black"/>
<path d="M324.417 99.2574C324.51 103.414 322.007 104.859 318.982 103.57C316.559 102.537 313.928 101.991 311.386 101.248C310.846 101.092 310.275 101.051 309.739 100.89C308.503 100.523 307.577 99.7942 307.307 98.4521C307.032 97.1099 307.564 96.0317 308.605 95.2577C310.58 93.7903 312.595 92.381 314.615 90.9762C315.51 90.3544 316.462 89.822 317.361 89.2046C319.562 87.6969 322.357 88.5872 322.973 91.2089C323.655 94.1214 324.04 97.1099 324.417 99.2574Z" fill="black"/>
<path d="M316.568 382.655C318.818 382.655 321.073 382.561 323.314 382.69C324.612 382.767 325.949 383.039 327.163 383.514C328.607 384.077 329.484 385.267 329.399 386.932C329.311 388.596 328.319 389.674 326.817 390.09C325.599 390.426 324.293 390.538 323.017 390.565C321.21 390.605 319.403 390.39 317.596 390.439C315.195 390.502 312.804 390.739 310.403 390.842C309.287 390.891 308.14 390.967 307.059 390.757C305.257 390.408 304.123 388.945 304.078 387.258C304.034 385.531 305.159 384.01 306.966 383.536C307.852 383.303 308.787 383.218 309.703 383.16C311.989 383.008 314.279 382.914 316.564 382.793C316.568 382.749 316.568 382.699 316.568 382.655Z" fill="black"/>
<path d="M495.778 319.282C494.622 319.273 493.709 318.714 493.196 317.743C491.783 315.059 489.776 312.979 487.34 311.221C485.998 310.25 485.303 308.791 485.808 307.037C486.317 305.27 487.712 304.639 489.351 304.353C492.669 303.776 495.99 303.19 499.308 302.608C499.587 302.559 499.861 302.483 500.14 302.47C502.036 302.367 503.188 303.857 502.568 305.668C501.283 309.422 499.977 313.167 498.657 316.907C498.107 318.473 497.089 319.278 495.778 319.282Z" fill="black"/>
<path d="M394.812 148.014C393.806 147.638 392.734 147.378 391.804 146.864C387.978 144.766 384.93 141.799 382.641 138.059C382.41 137.679 382.198 137.281 382.038 136.869C381.418 135.268 381.511 133.733 382.689 132.427C383.859 131.125 385.4 130.753 386.994 131.313C388.071 131.688 389.178 132.266 389.993 133.048C392.557 135.509 395.002 138.091 397.451 140.667C397.912 141.151 398.253 141.795 398.514 142.421C399.697 145.262 397.921 147.879 394.812 148.014Z" fill="black"/>
<path d="M538.359 47.4052C535.161 47.5573 531.967 47.7094 528.77 47.8615C526.732 47.9599 525.218 47.1188 524.535 45.5082C523.836 43.8574 524.243 41.9918 525.833 40.7033C528.021 38.9272 530.289 37.245 532.592 35.6254C534.084 34.5741 536.157 34.6725 537.154 36.216C538.779 38.7303 540.201 41.437 541.277 44.2332C541.995 46.0854 540.352 47.7541 538.372 47.7139C538.372 47.611 538.363 47.5081 538.359 47.4052Z" fill="black"/>
<path d="M243.635 344.501C244.286 342.435 244.795 340.309 245.637 338.323C246.438 336.431 248.13 335.603 249.791 335.862C251.523 336.135 252.838 337.473 253.122 339.535C253.321 340.972 253.334 342.443 253.308 343.897C253.281 345.302 253.715 346.372 254.823 347.275C255.584 347.897 256.271 348.698 256.771 349.552C257.666 351.069 257.232 352.407 255.642 353.167C254.938 353.507 254.118 353.727 253.339 353.767C248.268 354.022 243.883 349.705 243.963 344.6C243.856 344.573 243.745 344.537 243.635 344.501Z" fill="black"/>
<path d="M315.7 376.159C314.456 376.159 313.211 376.208 311.971 376.15C308.888 376.002 307.378 373.501 308.716 370.696C309.252 369.573 309.938 368.504 310.682 367.502C311.883 365.878 313.163 364.312 314.447 362.755C315.838 361.077 317.552 361.171 318.681 363.014C320.324 365.694 321.928 368.397 323.5 371.117C324.652 373.108 323.615 375.224 321.347 375.577C320.395 375.725 319.43 375.769 318.469 375.841C317.547 375.913 316.626 375.957 315.7 376.011C315.7 376.06 315.7 376.109 315.7 376.159Z" fill="black"/>
<path d="M562.413 98.5727C562.165 104.187 557.842 111.636 551.322 112.536C550.472 112.652 549.533 112.616 548.709 112.384C546.256 111.681 545.396 108.728 547.155 106.693C548.107 105.592 549.436 104.809 550.645 103.95C551.725 103.181 552.921 102.572 553.975 101.772C555.362 100.72 556.243 99.2706 556.775 97.6019C557.465 95.4276 558.449 94.5954 559.986 94.8549C561.487 95.101 562.426 96.5461 562.413 98.5727Z" fill="black"/>
<path d="M203.662 399.964C199.769 399.964 195.876 399.973 191.978 399.946C191.664 399.942 191.265 399.758 191.044 399.526C189.267 397.647 187.474 395.781 185.786 393.826C184.077 391.849 183.86 389.974 184.976 388.404C186.114 386.807 188.306 386.238 190.53 387.469C192.833 388.744 195.087 390.247 197.005 392.041C199.49 394.363 201.62 397.074 203.906 399.615C203.826 399.732 203.742 399.848 203.662 399.964Z" fill="black"/>
<path d="M381.84 266.352C381.485 268.052 381.317 269.385 380.918 270.642C380.484 272.02 379.532 272.553 378.19 272.083C377.083 271.694 375.922 271.126 375.09 270.316C372.211 267.52 370.873 264.03 371.139 259.981C371.254 258.223 371.905 256.653 373.225 255.449C375.59 253.288 379.032 254.067 379.9 257.145C380.772 260.254 381.246 263.471 381.84 266.352Z" fill="black"/>
<path d="M552.19 63.1757C553.608 63.6723 554.958 64.0704 556.247 64.6118C557.315 65.0592 558.373 65.5871 559.325 66.2403C560.18 66.8263 560.557 67.7569 560.149 68.8172C559.755 69.8462 558.865 70.1325 557.886 70.0833C557.049 70.0386 556.212 69.8686 555.384 69.7165C553.01 69.287 550.645 68.7949 548.262 68.4012C544.55 67.7927 543.199 64.8623 545.52 61.8604C547.464 59.3416 549.728 57.0688 551.942 54.7737C552.961 53.7179 554.436 53.7313 555.472 54.5456C556.495 55.3464 556.845 56.7825 556.181 58.0665C555.778 58.845 555.189 59.5384 554.626 60.2229C553.935 61.0685 553.182 61.8604 552.46 62.6835C552.385 62.773 552.345 62.8893 552.19 63.1757Z" fill="black"/>
<path d="M50.1149 327.604C46.8019 327.456 44.7203 323.985 46.359 321.068C46.9481 320.021 47.9092 319.068 48.9146 318.406C51.5676 316.656 54.3181 315.055 57.0685 313.466C58.4858 312.648 60.0626 312.898 61.0768 313.927C62.1354 314.996 62.3701 316.625 61.502 318.083C59.2388 321.891 55.948 324.642 52.2763 326.951C51.6606 327.335 50.8413 327.394 50.1149 327.604Z" fill="black"/>
<path d="M5.3546 282.171C5.48747 281.532 5.6292 280.606 5.86837 279.711C6.38657 277.751 6.4663 275.801 6.04554 273.81C5.89938 273.112 5.8418 272.342 5.9791 271.653C6.35114 269.779 8.18035 268.723 9.93869 269.43C10.7669 269.761 11.5465 270.356 12.1842 271C13.8009 272.638 15.3289 274.36 16.8746 276.065C17.9332 277.237 18.1502 278.543 17.2732 279.854C16.662 280.771 15.8648 281.666 14.948 282.243C13.1188 283.393 11.17 284.359 9.22561 285.317C7.51599 286.153 5.33688 284.507 5.3546 282.171Z" fill="black"/>
<path d="M33.2449 164.24C38.232 164.37 40.7522 168.553 38.7104 172.821C37.1735 176.034 34.2547 177.644 31.3049 176.906C27.0132 175.832 25.2637 171.649 27.4959 167.802C28.8557 165.466 30.8709 164.29 33.2449 164.24Z" fill="black"/>
<path d="M519.757 163.69C517.52 163.703 515.748 161.713 516.2 159.476C516.4 158.482 516.86 157.418 517.52 156.662C519.801 154.044 522.219 151.552 524.589 149.016C524.7 148.899 524.837 148.805 524.965 148.711C526.728 147.369 528.712 147.383 530.001 148.738C531.29 150.098 531.201 152.094 529.784 153.816C527.596 156.465 525.413 159.118 523.229 161.766C522.122 163.104 521.077 163.681 519.757 163.69Z" fill="black"/>
<path d="M378.194 11.8827C379.647 11.8514 381.007 12.1288 382.109 13.1578C383.854 14.7818 383.655 17.1798 381.52 18.164C378.358 19.627 376.006 21.846 374.234 24.839C373.163 26.651 371.378 26.651 370.12 24.9464C368.769 23.1166 368.68 21.0094 369.106 18.8843C369.956 14.6252 373.552 11.8961 378.194 11.8827Z" fill="black"/>
<path d="M519.247 107.816C520.386 108.169 521.604 108.366 522.64 108.912C524.345 109.816 524.283 111.811 522.614 112.777C518.464 115.184 514.81 118.177 511.851 122.007C510.801 123.363 509.282 123.322 508.418 121.828C507.998 121.094 507.736 120.155 507.736 119.305C507.741 113.775 513.698 107.946 519.247 107.816Z" fill="black"/>
<path d="M148.618 163.923C150.208 164.12 152.064 164.097 153.401 165.65C153.543 165.811 153.827 165.855 154.048 165.94C155.886 166.612 156.515 168.236 155.527 169.9C154.11 172.289 152.684 174.673 151.209 177.027C149.929 179.071 146.953 179.044 146.164 176.79C145.163 173.908 144.45 170.871 144.074 167.846C143.777 165.453 145.806 163.887 148.618 163.923Z" fill="black"/>
<path d="M104.996 158.263C105.403 155.306 105.753 152.367 106.231 149.45C106.559 147.441 107.99 146.264 109.682 146.389C111.44 146.519 112.738 147.915 112.795 149.96C112.835 151.373 112.676 152.792 112.583 154.205C112.423 156.675 112.246 159.144 112.082 161.61C111.94 163.717 110.798 165.108 109.066 165.278C107.37 165.444 105.842 164.258 105.421 162.24C105.155 160.943 105.133 159.592 104.996 158.263Z" fill="black"/>
<path d="M150.469 294.479C150.469 296.018 150.496 297.562 150.465 299.101C150.407 301.655 148.361 303.199 146.005 302.299C143.834 301.467 141.731 300.425 139.662 299.351C138.311 298.653 137.266 297.53 137.514 295.862C137.775 294.121 138.75 292.694 140.473 292.184C142.665 291.54 144.911 291.034 147.165 290.667C149.242 290.327 150.726 292.072 150.469 294.479Z" fill="black"/>
<path d="M227.588 232.208C224.2 232.185 221.055 229.241 221.073 226.105C221.091 222.727 223.717 219.627 226.565 219.614C229.71 219.6 233.443 223.179 233.421 226.181C233.399 228.803 230.086 232.225 227.588 232.208Z" fill="black"/>
<path d="M296.571 166.164C296.345 167.529 295.92 168.607 294.729 169.153C293.573 169.681 292.474 169.318 291.633 168.455C290.65 167.444 289.79 166.316 288.869 165.242C287.084 163.162 285.313 161.068 283.497 159.015C282.487 157.87 282.212 156.532 282.854 155.328C283.514 154.103 284.887 153.494 286.371 153.897C287.013 154.071 287.678 154.367 288.2 154.778C290.915 156.908 293.307 159.373 295.052 162.384C295.725 163.542 296.075 164.898 296.571 166.164Z" fill="black"/>
<path d="M438.302 81.1159C438.35 79.3308 438.692 77.6845 439.755 76.2662C441.101 74.4677 443.267 73.7385 445.193 74.4141C447.231 75.1344 448.312 77.3042 447.125 79.0893C445.592 81.3933 445.393 83.7779 445.623 86.3817C445.765 87.9923 444.773 88.8915 443.178 88.7439C441.615 88.6007 440.521 87.6791 439.692 86.4085C438.647 84.7845 438.359 82.9547 438.302 81.1159Z" fill="black"/>
<path d="M543.917 90.3499C543.372 90.1396 542.265 89.8667 541.313 89.3164C538.735 87.84 536.583 85.8357 534.838 83.4154C534.399 82.8069 534.058 82.0822 533.837 81.3574C533.407 79.9481 533.961 78.5567 535.095 77.8543C536.18 77.1877 537.615 77.3085 538.673 78.2436C539.276 78.776 539.745 79.4515 540.343 79.9884C541.933 81.4155 543.554 82.8025 545.166 84.1983C545.653 84.6188 546.185 84.9946 546.623 85.4644C547.483 86.386 547.846 87.4642 547.328 88.699C546.885 89.7683 545.813 90.3678 543.917 90.3499Z" fill="black"/>
<path d="M428.912 83.1826C428.916 85.5537 427.486 87.5983 425.418 88.171C423.376 88.7391 421.236 87.7594 420.072 85.6343C419.691 84.9363 419.363 84.1579 419.23 83.3794C418.721 80.3909 420.581 77.8005 423.305 77.5858C426.201 77.3531 428.903 80.0553 428.912 83.1826Z" fill="black"/>
<path d="M552.102 369.69C549.485 369.497 547.771 368.911 546.871 366.996C546.074 365.301 546.504 363.712 547.651 362.357C549.042 360.715 550.849 360.062 552.953 360.585C553.759 360.787 554.547 361.158 555.273 361.578C557.683 362.979 557.794 366.688 555.366 368.347C554.25 369.103 552.824 369.399 552.102 369.69Z" fill="black"/>
<path d="M185.516 37.1466C182.713 36.6992 179.945 35.2944 178.062 32.4535C177.23 31.1964 177.389 29.7021 178.253 28.7089C179.112 27.7202 180.547 27.3712 181.902 28.0915C183.962 29.1876 185.981 30.3821 187.93 31.6616C189.25 32.5296 189.684 33.9344 189.286 35.1557C188.878 36.4039 187.651 37.1511 185.516 37.1466Z" fill="black"/>
<path d="M148.228 273.112C150.792 273.081 152.87 275.134 152.883 277.702C152.892 280.239 150.916 282.315 148.427 282.377C145.876 282.44 143.754 280.4 143.71 277.845C143.666 275.259 145.686 273.143 148.228 273.112Z" fill="black"/>
<path d="M407.333 199.933C404.591 199.91 402.328 197.844 402.315 195.361C402.301 193.025 404.374 191.07 406.837 191.097C409.596 191.124 411.97 193.213 411.948 195.589C411.926 197.991 409.835 199.955 407.333 199.933Z" fill="black"/>
<path d="M207.152 94.0273C208.751 94.0497 209.858 94.43 210.607 95.5395C211.532 96.9175 211.081 98.4923 209.575 99.1589C208.104 99.8121 206.603 100.398 205.15 101.078C204.597 101.338 204.176 101.919 203.613 102.121C202.869 102.38 201.966 102.671 201.279 102.456C200.717 102.277 200.216 101.441 199.986 100.792C199.826 100.349 200.043 99.6421 200.314 99.1857C201.607 97.0159 203.352 95.3113 205.713 94.3495C206.253 94.1213 206.873 94.0855 207.152 94.0273Z" fill="black"/>
<path d="M177.411 110.129C177.389 110.505 177.407 110.997 177.323 111.471C176.88 113.958 174.267 115.028 172.234 113.574C170.591 112.397 169.731 109.874 170.312 107.932C170.781 106.366 172.189 105.337 173.753 105.413C175.432 105.494 176.964 106.849 177.283 108.563C177.363 109.042 177.363 109.534 177.411 110.129Z" fill="black"/>
<path d="M550.57 10.2585C552.519 10.2361 554.228 12.2449 554.273 14.616C554.313 16.6114 552.855 18.222 550.991 18.2533C548.976 18.2846 547.217 16.3653 547.226 14.1463C547.235 11.9541 548.674 10.2809 550.57 10.2585Z" fill="black"/>
<path d="M556.855 202.877C554.857 202.85 553.391 201.458 553.404 199.602C553.418 197.723 555.008 196.224 556.948 196.264C558.755 196.3 560.207 197.803 560.199 199.633C560.194 201.463 558.71 202.903 556.855 202.877Z" fill="black"/>
<path d="M346.903 93.0923C346.921 94.8953 345.45 96.3046 343.523 96.3359C341.601 96.3672 340.14 94.9758 340.148 93.1281C340.162 91.3072 341.672 89.8219 343.501 89.8309C345.357 89.8398 346.885 91.3072 346.903 93.0923Z" fill="black"/>
<path d="M519.079 120.571C519.478 120.625 519.961 120.558 520.253 120.763C520.745 121.108 521.342 121.573 521.462 122.092C521.568 122.544 521.214 123.461 520.838 123.618C519.416 124.213 517.919 124.687 516.404 124.978C515.992 125.058 515.12 124.41 515.009 123.958C514.863 123.363 515.04 122.325 515.465 122.025C516.506 121.282 517.768 120.857 518.942 120.302C518.986 120.392 519.031 120.481 519.079 120.571Z" fill="black"/>
<path d="M453.418 150.353C451.035 150.362 449.135 148.448 449.14 146.036C449.144 143.634 451.066 141.714 453.44 141.737C455.77 141.759 457.635 143.643 457.657 146C457.683 148.416 455.805 150.344 453.418 150.353Z" fill="black"/>
<path d="M326.791 213.748C325.214 213.001 323.575 212.361 322.083 211.467C321.135 210.898 320.962 209.829 321.44 208.76C322.029 207.44 323.371 206.456 324.607 206.867C326.144 207.377 327.632 208.156 328.983 209.055C329.882 209.655 329.98 210.8 329.55 211.829C329.076 212.97 328.111 213.404 326.941 213.44C326.893 213.542 326.844 213.645 326.791 213.748Z" fill="black"/>
</g>
<defs>
<clipPath id="clip0_301_6757">
<rect width="570" height="400" fill="white"/>
</clipPath>
</defs>
</svg>
