<svg width="326" height="152" viewBox="0 0 326 152" fill="none" xmlns="http://www.w3.org/2000/svg">
<path d="M6.93989 22.079C8.17571 22.8233 8.88176 23.8525 9.13031 25.0752L9.13288 25.0878L9.13501 25.1005C9.19588 25.4634 9.23527 25.8241 9.26721 26.1721C9.33088 25.9506 9.39436 25.7255 9.45852 25.498C9.71428 24.591 9.98073 23.6462 10.3115 22.7416C10.5651 22.027 11.0959 21.4162 11.515 20.9339C11.5238 20.9238 11.5325 20.9137 11.5412 20.9037C11.8778 20.4691 12.4405 20.1642 12.9332 20.0173L12.9422 20.0147L12.9513 20.0122C13.0104 19.9962 13.0698 19.9803 13.1295 19.9647C12.981 19.9221 12.8355 19.8753 12.693 19.825L12.6807 19.8207L12.6807 19.8206C12.0229 19.5754 11.3618 19.2414 10.8619 18.7623C10.3449 18.2669 9.99649 17.6085 10.0214 16.7847C10.0221 16.292 10.0621 15.7748 10.0993 15.294C10.1168 15.0681 10.1337 14.8503 10.1456 14.6467L10.1458 14.6425C10.1519 14.547 10.158 14.4521 10.1641 14.3577C10.0922 14.6166 10.0096 14.8767 9.91043 15.1231L9.90886 15.127L9.90884 15.127C9.36578 16.4546 8.60743 17.6846 7.44681 18.6519C6.41324 19.5134 5.09936 20.1342 3.41868 20.4555C4.73152 20.7273 5.76461 21.3598 6.68922 21.9259C6.77364 21.9776 6.85715 22.0287 6.93989 22.079ZM6.93989 22.079C6.94031 22.0792 6.94073 22.0795 6.94115 22.0797L6.55184 22.7208L6.93866 22.0782C6.93907 22.0785 6.93948 22.0787 6.93989 22.079ZM2.37323 20.8887C2.35644 20.87 2.33878 20.8506 2.32066 20.8306C2.16199 20.6561 1.96777 20.4425 2.00453 20.2781C2.0455 20.0949 2.37323 19.8506 2.66 19.8201C6.42894 19.301 8.19051 17.3468 9.21467 14.843L2.37323 20.8887Z" stroke="#81ADC8" stroke-width="1.5"/>
<path d="M15.2786 25.8585L15.445 25.9924C15.4461 25.9754 15.4472 25.9583 15.4483 25.9412L15.3249 25.8585M15.2786 25.8585H15.3249M15.2786 25.8585L15.2635 25.8463M15.2786 25.8585H15.2502H15.2351M15.3249 25.8585L15.3114 25.8494M15.3249 25.8585H15.4536L15.3114 25.8494M15.3114 25.8494L15.2759 25.8256M15.3114 25.8494L15.2635 25.8463M15.2635 25.8463L15.2512 25.8455M15.2635 25.8463L15.2568 25.841M15.2351 25.8585L15.2502 25.8464L15.2512 25.8455M15.2351 25.8585H15.1945M15.2351 25.8585L15.1864 25.8977L15.1269 25.9456M15.2512 25.8455L15.2568 25.841M15.2512 25.8455L15.2502 25.8455L15.2171 25.8434M15.2568 25.841L15.2502 25.8356L15.2404 25.8277M15.2568 25.841L15.2759 25.8256M15.2171 25.8434L15.2404 25.8277M15.2171 25.8434L15.1967 25.8421L14.9979 25.8294C14.9955 25.839 14.9927 25.8487 14.9894 25.8585H15.1937H15.1945M15.2171 25.8434L15.1945 25.8585M15.2404 25.8277L15.2502 25.8212L15.2597 25.8148M15.2404 25.8277L15.2047 25.7991L15.0467 25.6719L15.2082 25.7802L15.2502 25.8083L15.2597 25.8148M15.2759 25.8256L15.2597 25.8148M15.2759 25.8256L15.4379 25.6952L15.2597 25.8148M15.1945 25.8585L15.1935 25.8592L15.0818 25.9341M15.1819 26.3018C15.1573 26.2993 15.1344 26.2956 15.1131 26.2911C15.0414 26.276 14.9888 26.2524 14.9598 26.2377C14.9336 26.2244 14.9127 26.2112 14.8974 26.2005C14.8694 26.3163 14.8394 26.4316 14.8012 26.5429C14.8008 26.544 14.8004 26.5451 14.8 26.5462C14.7891 26.5778 14.7775 26.6091 14.7651 26.6399L14.6097 27.3746C14.6099 27.3697 14.61 27.3648 14.6102 27.3599L15.2441 27.3823C15.288 27.3006 15.329 27.2181 15.3674 27.135C15.3719 27.0544 15.3779 26.9737 15.3842 26.8931C15.3843 26.8918 15.3844 26.8905 15.3845 26.8892C15.3855 26.8761 15.3865 26.863 15.3875 26.8498C15.3945 26.7604 15.4014 26.671 15.4067 26.5816C15.4133 26.4778 15.4199 26.3762 15.4265 26.2749C15.4263 26.2749 15.4261 26.275 15.4259 26.2751C15.3907 26.2863 15.3295 26.302 15.2502 26.3038C15.2287 26.3043 15.2059 26.3037 15.1819 26.3018ZM15.1819 26.3018C15.1598 26.3 15.1367 26.297 15.1128 26.2926L15.1809 26.3052H15.2502C15.2263 26.3052 15.2035 26.304 15.1819 26.3018ZM15.0902 25.9751L15.164 26.0176L15.2502 26.0671L15.4332 26.1724C15.4364 26.1238 15.4396 26.0752 15.4428 26.0263L15.2502 25.9771L15.1751 25.9579L15.1269 25.9456M15.0902 25.9751L15.1269 25.9456M15.0902 25.9751L15.0528 25.9536M15.0902 25.9751L14.918 26.1137C14.9193 26.1084 14.9205 26.1031 14.9218 26.0977C14.9271 26.0754 14.9323 26.0531 14.9376 26.0308L15.0528 25.9536M15.1269 25.9456L15.0818 25.9341M15.0818 25.9341L15.0528 25.9536M15.0818 25.9341L14.9685 25.9051L15.0528 25.9536M14.748 29.4997C14.7457 29.5061 14.7433 29.5126 14.7409 29.5191C14.5789 29.3245 14.3772 29.1526 14.1361 29.0073C14.1043 28.9879 14.0714 28.9677 14.0374 28.9468C13.9738 28.9077 13.9065 28.8664 13.8353 28.8241C14.0346 28.7159 14.2181 28.5913 14.3866 28.4509C14.5284 28.3327 14.656 28.2063 14.7711 28.0737C14.8511 28.2257 14.9557 28.3587 15.0736 28.4716C15.1447 28.5398 15.2206 28.6009 15.2992 28.6559C15.2984 28.657 15.2975 28.6581 15.2966 28.6592C15.2922 28.6643 15.2877 28.6694 15.2831 28.6747C15.1313 28.8487 14.8757 29.1417 14.748 29.4997Z" stroke="#81ADC8" stroke-width="1.5"/>
<path d="M4.0528 31.8221L4.06621 31.8251L4.0528 31.8221Z" stroke="#CD4631" stroke-width="1.5"/>
<path d="M307.156 150.739C307.156 148.651 306.699 145.904 307.77 143.975C308.078 143.422 307.843 142.9 308.294 142.449C308.776 141.968 309.43 141.674 309.934 141.219C311.957 139.399 312.075 135.345 312.075 132.702C312.075 129.056 315.146 126.508 316.584 123.273C317.447 121.332 318.925 118.411 320.365 116.805C321.926 115.063 324.031 112.822 324.783 110.564" stroke="black" stroke-width="1.2" stroke-linecap="round"/>
<path d="M316.408 130.806C316.408 129.126 316.429 128.799 317.119 127.591C317.518 126.893 319.038 126.404 319.241 125.693C319.408 125.108 320.624 123.769 321.152 123.505C322.174 122.994 322.773 121.398 323.287 120.369" stroke="black" stroke-width="1.2" stroke-linecap="round"/>
<path d="M17.2798 100.157C14.539 100.09 12.9703 96.5228 10.6606 98.6016C9.38334 99.7511 6.91414 97.6551 5.96094 97.1785" stroke="black" stroke-width="1.2" stroke-linecap="round"/>
<path d="M19.0669 104.625C18.2874 104.625 17.2133 104.813 16.4523 104.559C16.0067 104.41 15.7753 103.923 15.3436 103.732C15.0305 103.592 13.8531 103.172 13.7054 102.987C12.9694 102.067 10.9687 105.61 9.53527 104.327C8.01806 102.97 5.76325 102.761 4.02478 101.796C3.32947 101.409 2.64764 101.345 2.08866 100.753C1.67887 100.319 1.5617 99.5158 1.19507 98.9658" stroke="black" stroke-width="1.2" stroke-linecap="round"/>
<path d="M269.037 18.6556C268.648 17.6371 269.975 16.8497 270.683 17.6795L274.251 21.8663C275.05 22.803 276.56 22.5403 276.995 21.3891L279.69 14.2628C280.06 13.282 281.508 13.5047 281.566 14.5517L281.877 20.0953C281.939 21.189 283.047 21.9067 284.07 21.5156L290.992 18.87C291.888 18.5277 292.685 19.553 292.132 20.3362L287.509 26.8848C286.893 27.7579 287.278 28.9781 288.283 29.3397L292.062 30.6984C293.057 31.0562 292.843 32.5214 291.787 32.5807L286.498 32.8774C285.404 32.9388 284.687 34.0467 285.078 35.0699L286.668 39.23C287.054 40.2411 285.746 41.0302 285.032 40.2167L280.39 34.9279C279.546 33.9664 277.972 34.3188 277.619 35.5484L276.183 40.5472C275.874 41.6227 274.291 41.4079 274.28 40.2891L274.207 33.0368C274.193 31.7018 272.66 30.957 271.602 31.7717L269.915 33.0712C268.996 33.7792 267.834 32.5698 268.578 31.6798L269.656 30.3914C270.413 29.4858 269.976 28.1003 268.837 27.7923L265.26 26.8259C264.197 26.5384 264.359 24.9816 265.459 24.9199L269.095 24.7159C270.189 24.6546 270.907 23.5467 270.516 22.5234L269.037 18.6556Z" fill="black" stroke="black" stroke-width="0.647026"/>
<path d="M179.119 55.0621C181.272 51.3326 184.819 48.6112 188.978 47.4966C193.138 46.382 197.57 46.9655 201.3 49.1188C205.029 51.272 207.751 54.8186 208.865 58.9783C209.98 63.138 209.396 67.5701 207.243 71.2996L198.806 66.4284C199.667 64.9366 199.9 63.1637 199.455 61.4998C199.009 59.8359 197.92 58.4173 196.428 57.556C194.937 56.6947 193.164 56.4613 191.5 56.9072C189.836 57.353 188.417 58.4416 187.556 59.9334L179.119 55.0621Z" fill="#CD4631"/>
</svg>
