<svg width="284" height="249" viewBox="0 0 284 249" fill="none" xmlns="http://www.w3.org/2000/svg">
<path d="M112.201 180.154C102.617 177.224 85.3234 175.99 72.1325 156.653C59.2482 137.766 107.532 173.092 105.101 193.003C102.261 216.277 23.3742 150.551 42.3959 154.222C53.0377 156.275 97.3694 204.75 85.6396 210.987C70.7178 218.921 14.6044 168.998 17.8172 162.33C23.4849 150.565 85.0715 217.669 74.775 228.219C62.4969 240.799 18.5653 200.445 19.298 188.176C19.8842 178.361 59.3319 227.697 40.9444 247.019" stroke="#81ADC8" stroke-width="2.5" stroke-linecap="round"/>
<path d="M139.342 21.783C140.5 18.5 136.5 0.500046 122 5.19177" stroke="#F7EDE8" stroke-width="2.5" stroke-linecap="round"/>
<path d="M150.144 28.1202C148.88 27.4593 144.214 19.0953 150.655 18.1615" stroke="#F7EDE8" stroke-width="2.5" stroke-linecap="round"/>
<path d="M132 24.0001C134.167 24.3335 138.5 25.7001 138.5 28.5001" stroke="#F7EDE8" stroke-width="2.5" stroke-linecap="round"/>
<path d="M225.291 214.936C226.243 214.368 227.274 215.54 226.59 216.412L225.667 217.588C225.257 218.111 225.462 218.881 226.078 219.132L232.63 221.793C233.621 222.195 233.373 223.664 232.304 223.718L226.195 224.026C225.389 224.067 224.961 224.995 225.452 225.634L227.712 228.572C228.315 229.356 227.536 230.445 226.6 230.129L224.505 229.423C223.937 229.231 223.329 229.579 223.206 230.165L222.799 232.113C222.614 232.998 221.443 233.203 220.969 232.434L219.365 229.834C218.88 229.047 217.678 229.284 217.527 230.196L216.846 234.328C216.671 235.387 215.177 235.464 214.894 234.428L213.271 228.467C213.153 228.035 212.763 227.734 212.315 227.73L206.649 227.68C205.585 227.671 205.27 226.226 206.234 225.775L210.79 223.64C211.264 223.418 211.487 222.868 211.301 222.379L208.927 216.148C208.592 215.269 209.547 214.456 210.362 214.926L213.733 216.873C214.164 217.122 214.712 217.016 215.019 216.625L217.63 213.309C218.276 212.488 219.59 213.083 219.399 214.11L218.895 216.816C218.738 217.662 219.651 218.298 220.39 217.858L225.291 214.936Z" fill="#CD4631"/>
<path d="M223.645 191.098C222.196 190.237 223.049 188.01 224.703 188.337L233.043 189.988C234.909 190.358 236.488 188.591 235.911 186.778L232.341 175.557C231.85 174.013 233.818 172.895 234.893 174.107L240.587 180.528C241.71 181.794 243.741 181.601 244.606 180.146L250.458 170.3C251.215 169.027 253.164 169.505 253.246 170.985L253.924 183.354C254.015 185.004 255.651 186.113 257.217 185.587L263.099 183.61C264.648 183.089 265.795 185.07 264.572 186.154L258.446 191.587C257.18 192.71 257.372 194.741 258.828 195.606L264.745 199.123C266.183 199.978 265.354 202.189 263.708 201.888L253.01 199.931C251.065 199.575 249.496 201.511 250.247 203.34L253.302 210.775C253.959 212.375 251.834 213.633 250.747 212.288L243.703 203.569C242.406 201.964 239.833 202.532 239.333 204.534L238.535 207.726C238.1 209.466 235.532 209.115 235.58 207.322L235.65 204.728C235.699 202.904 233.841 201.644 232.165 202.363L226.904 204.622C225.339 205.294 224.042 203.252 225.316 202.121L229.527 198.387C230.794 197.264 230.601 195.233 229.146 194.367L223.645 191.098Z" fill="black" stroke="black"/>
</svg>
